<svg xmlns="http://www.w3.org/2000/svg" data-name="Layer 1" viewBox="0 0 1000 1000"><g data-name="&lt;Group&gt;"><path fill="#070707" d="M578.26,604H425.62a29.13,29.13,0,0,1-29.1-29.1V407.6a29.13,29.13,0,0,1,29.1-29.1H578.26a29.13,29.13,0,0,1,29.1,29.1V574.88A29.13,29.13,0,0,1,578.26,604ZM425.62,388.8a18.82,18.82,0,0,0-18.8,18.8V574.88a18.82,18.82,0,0,0,18.8,18.8H578.26a18.82,18.82,0,0,0,18.8-18.8V407.6a18.82,18.82,0,0,0-18.8-18.8Z" data-name="&lt;Group&gt;"/><path fill="#070707" d="M561.58,571.73H442.3A15.74,15.74,0,0,1,426.57,556V426.47a15.75,15.75,0,0,1,15.73-15.73H561.58a15.74,15.74,0,0,1,15.73,15.73V556A15.74,15.74,0,0,1,561.58,571.73ZM442.3,421a5.44,5.44,0,0,0-5.43,5.43V556a5.44,5.44,0,0,0,5.43,5.43H561.58A5.43,5.43,0,0,0,567,556V426.47a5.44,5.44,0,0,0-5.43-5.43Z" data-name="&lt;Group&gt;"/><g data-name="&lt;Group&gt;"><path fill="#070707" d="M505.15,241.12H505a5.15,5.15,0,0,1-5-5.28c.07-2.77.37-6.21.72-10.12,2.47-27.71,6.6-74.09-51.53-83.54-76.94-12.48-103.92,81.94-105,86a5.15,5.15,0,0,1-9.93-2.73c.29-1.08,30.48-107.44,116.62-93.41,67.58,11,62.55,67.47,60.13,94.62-.33,3.66-.62,6.88-.68,9.47A5.15,5.15,0,0,1,505.15,241.12Z" data-name="&lt;Group&gt;"/><path fill="#070707" d="M218.48,324.77a5.15,5.15,0,0,1-5.15-5.14c-.06-36.83,15.75-67.33,44.51-85.89,26.1-16.85,61.22-21.74,83.48-11.63l53.85,18.43a5.16,5.16,0,0,1,2,1.29l44,45.55a5.15,5.15,0,0,1-7.41,7.15l-43.14-44.65-53.14-18.21c-17-7.7-47.62-6.36-74.1,10.73-18.19,11.74-39.87,34.67-39.8,77.22a5.15,5.15,0,0,1-5.14,5.16Z" data-name="&lt;Group&gt;"/><path fill="#070707" d="M168.64,535.08a5.13,5.13,0,0,1-3.33-1.22c-60.33-51.19-35.14-123.31-34.87-124,22.38-80,72.49-93.18,87.31-95.3a5.16,5.16,0,0,1,2.09.13l86.86,23.69,62.9-6.18a5.15,5.15,0,1,1,1,10.25l-63.84,6.27a5.39,5.39,0,0,1-1.86-.16l-86.72-23.65c-14.42,2.37-57.64,15.57-77.95,88.09-1.08,3-23,66.56,31.74,113a5.15,5.15,0,0,1-3.34,9.07Z" data-name="&lt;Group&gt;"/><path fill="#070707" d="M229.09,686.4c-25.71,0-46.69-18-57.94-30.1-7.5-8.09-13.23-18.29-17.53-31.18-8.33-25-6.62-79.14,11.22-98.67a5.15,5.15,0,1,1,7.6,6.95c-13.64,14.92-17,64.69-9.05,88.46,3.83,11.47,8.83,20.45,15.31,27.44,11.9,12.85,36,33.15,63.61,24.82a5.15,5.15,0,1,1,3,9.86A55.92,55.92,0,0,1,229.09,686.4Z" data-name="&lt;Group&gt;"/><path fill="#070707" d="M291.4,793.61c-21.33,0-37.63-6.27-48.69-18.79-24-27.13-14.74-75.46-6.51-94.62a11.87,11.87,0,0,1,7.94-6.82l64.62-54.1a5.15,5.15,0,0,1,6.61,7.9l-65.65,55a5.13,5.13,0,0,1-2.8,1.17,1.54,1.54,0,0,0-1.26.95c-7.09,16.51-15.74,60.52,4.77,83.74,15.26,17.27,43.9,20,85.1,8a5.15,5.15,0,1,1,2.86,9.89Q311.87,793.62,291.4,793.61Z" data-name="&lt;Group&gt;"/><path fill="#070707" d="M439.76,855.29q-5.3,0-10.75-.41c-66-5-95.52-69.06-96.75-71.79a5.15,5.15,0,0,1-.32-3.29l17.71-75.14a5.11,5.11,0,0,1,1-2.1L394,650.27a5.15,5.15,0,1,1,7.93,6.56L359.4,708.2l-17,72.18c4.79,9.46,32.93,60.15,87.39,64.23,32.24,2.43,59.79-6.85,81.79-27.55a5.15,5.15,0,0,1,7.06,7.5C496.93,845,470.44,855.29,439.76,855.29Z" data-name="&lt;Group&gt;"/></g><g data-name="&lt;Group&gt;"><path fill="#070707" d="M661.73,236a5.16,5.16,0,0,1-5-3.8c-1.09-4-27.7-98.59-104.66-86.51-19.18,3-34.75,11.26-46.28,24.5a5.15,5.15,0,0,1-7.76-6.77c13.17-15.11,30.81-24.5,52.44-27.91,86.19-13.6,115.92,92.91,116.21,94a5.15,5.15,0,0,1-3.63,6.31A5.05,5.05,0,0,1,661.73,236Z" data-name="&lt;Group&gt;"/><path fill="#070707" d="M782,329.47h0a5.15,5.15,0,0,1-5.12-5.18c.25-42.56-21.33-65.6-39.48-77.44-26.4-17.21-57-18.69-73.57-11.27l-64.51,39.62a5.15,5.15,0,0,1-5.38-8.78L659,226.5c22.89-10.31,58-5.25,84,11.73,28.69,18.71,44.38,49.29,44.15,86.13A5.15,5.15,0,0,1,782,329.47Z" data-name="&lt;Group&gt;"/><path fill="#070707" d="M831,540a5.15,5.15,0,0,1-3.32-9.09c55-46.2,33.29-109.83,32.34-112.52-19.95-72.39-62.58-86.18-77.33-88.78L714.93,357.9a5.24,5.24,0,0,1-2.77.34L645.69,347.9a5.15,5.15,0,1,1,1.58-10.18l65,10.11,67.76-28.27a5.24,5.24,0,0,1,2.74-.34c14.81,2.21,64.86,15.66,87,96.11.14.36,25,72.61-35.53,123.49A5.12,5.12,0,0,1,831,540Z" data-name="&lt;Group&gt;"/><path fill="#070707" d="M770.13,691a55.71,55.71,0,0,1-16.46-2.5,5.15,5.15,0,1,1,3-9.84c27.58,8.44,51.75-11.71,63.71-24.49,6.51-7,11.56-15.91,15.43-27.36,8-23.73,4.9-73.52-8.67-88.51a5.15,5.15,0,1,1,7.64-6.91C852.56,551,854,605.2,845.59,630.15c-4.36,12.87-10.13,23-17.66,31.09C816.66,673.28,795.7,691,770.13,691Z" data-name="&lt;Group&gt;"/><path fill="#070707" d="M706.16 796.73q-19.9 0-45.61-10.33a5.15 5.15 0 113.84-9.55c34 13.67 59 12.66 74.41-3 22.19-22.61 18.54-70.48 12-87.3l-52.25-52.07L660.23 623.7a5.15 5.15 0 112.79-9.92l39.61 11.14a5.17 5.17 0 012.24 1.31L758.81 680a5.11 5.11 0 011.11 1.64c8.83 20.81 11.88 73.3-13.76 99.43C735.89 791.5 722.51 796.73 706.16 796.73zM503.64 388.8h-.05a5.15 5.15 0 01-5.1-5.2L500 235.92a5.15 5.15 0 015.15-5.1h.05a5.15 5.15 0 015.1 5.2l-1.5 147.68A5.15 5.15 0 01503.64 388.8z" data-name="&lt;Group&gt;"/><path fill="#070707" d="M578.22,869.26c-38.35,0-64-23.76-76.22-70.73a233.16,233.16,0,0,1-7.11-61.09l1.41-138.66a5.15,5.15,0,0,1,5.15-5.1h.05a5.15,5.15,0,0,1,5.1,5.2l-1.41,138.66A222.88,222.88,0,0,0,512,795.93c11.69,44.85,35.29,65.36,72.41,62.81,54.28-3.8,70.38-66,72.72-76.52l-15.31-34a5.24,5.24,0,0,1-.45-2.22l1.19-57.19a5.15,5.15,0,0,1,10.3.21l-1.17,56,15.52,34.47a5.17,5.17,0,0,1,.37,3c-.15.82-15.53,81.78-82.45,86.47C582.76,869.18,580.46,869.26,578.22,869.26Z" data-name="&lt;Group&gt;"/></g><path fill="#070707" d="M455.4,528.21a5.15,5.15,0,0,1-4.87-6.81L472,458.3a5.15,5.15,0,0,1,9.75,3.32l-21.48,63.09A5.15,5.15,0,0,1,455.4,528.21Z" data-name="&lt;Group&gt;"/><path fill="#070707" d="M497.33 528.21a5.15 5.15 0 01-4.9-3.56L472 461.55a5.15 5.15 0 119.8-3.18l20.45 63.09a5.15 5.15 0 01-4.9 6.74zM531.93 528.21a5.15 5.15 0 01-5.15-5.15V460a5.15 5.15 0 0110.3 0v63.09A5.15 5.15 0 01531.93 528.21z" data-name="&lt;Group&gt;"/><path fill="#070707" d="M548.3 465.11H515.57a5.15 5.15 0 010-10.3H548.3a5.15 5.15 0 010 10.3zM548.3 528.21H515.57a5.15 5.15 0 010-10.3H548.3a5.15 5.15 0 110 10.3zM489.73 507H462.94a5.15 5.15 0 110-10.3h26.79a5.15 5.15 0 010 10.3zM675.28 428.2H603.75a5.15 5.15 0 110-10.3h70.47L748 385.81a5.15 5.15 0 114.11 9.44l-74.75 32.52A5.16 5.16 0 01675.28 428.2zM714.48 469.48H603.75a5.15 5.15 0 110-10.3H714.48a5.15 5.15 0 110 10.3zM769.72 611a5.14 5.14 0 01-3.08-1l-66.48-49.76H603.75a5.15 5.15 0 110-10.3h98.13a5.13 5.13 0 013.08 1l67.86 50.78a5.15 5.15 0 01-3.09 9.27zM721.31 516H603.75a5.15 5.15 0 110-10.3H720.38l78.1-29a5.15 5.15 0 013.59 9.65l-79 29.32A5.2 5.2 0 01721.31 516zM400.65 430.34h-.12l-69.89-1.53a5.19 5.19 0 01-1.92-.42l-72.23-31.08a5.15 5.15 0 114.07-9.46l71.3 30.69 68.89 1.5a5.15 5.15 0 01-.11 10.3zM400.65 471.65h-.23l-104-4.6a5.15 5.15 0 01.46-10.29l104 4.59a5.15 5.15 0 01-.22 10.3zM243.8 593a5.15 5.15 0 01-2.54-9.63l57.91-32.72a4.91 4.91 0 012.65-.67l98.11 2.14a5.15 5.15 0 01-.22 10.3L303 560.29l-56.68 32A5.13 5.13 0 01243.8 593zM400.65 518.13h-.12L283 515.56a5.14 5.14 0 01-1.78-.36l-62.54-24.75a5.15 5.15 0 013.79-9.57l61.68 24.41 116.62 2.54a5.15 5.15 0 01-.11 10.3zM572.16 864.15a5.15 5.15 0 01-4.89-6.77L590.63 787l-23.4-78.12a5.15 5.15 0 019.86-3L601 785.58a5.15 5.15 0 010 3.1L577 860.63A5.15 5.15 0 01572.16 864.15zM423.11 854.91h-.38a5.15 5.15 0 01-4.76-5.51l8.61-118.76a5.15 5.15 0 1110.27.74l-8.61 118.76A5.15 5.15 0 01423.11 854.91z" data-name="&lt;Group&gt;"/><path fill="#070707" d="M433.42 733.25c-11 0-19.95-9.5-19.95-21.17s9-21.17 19.95-21.17 20 9.5 20 21.17S444.42 733.25 433.42 733.25zm0-32c-5.32 0-9.65 4.88-9.65 10.87s4.33 10.87 9.65 10.87 9.65-4.88 9.65-10.87S438.74 701.21 433.42 701.21zM566.45 712.52c-11 0-20-9.5-20-21.17s9-21.17 20-21.17 20 9.5 20 21.17S577.45 712.52 566.45 712.52zm0-32c-5.32 0-9.65 4.88-9.65 10.87s4.33 10.87 9.65 10.87 9.65-4.88 9.65-10.87S571.77 680.48 566.45 680.48zM647.67 692.47c-11 0-20-9.5-20-21.17s9-21.17 20-21.17 20 9.5 20 21.17S658.67 692.47 647.67 692.47zm0-32c-5.32 0-9.65 4.88-9.65 10.88s4.33 10.87 9.65 10.87 9.65-4.88 9.65-10.87S653 660.42 647.67 660.42zM647.67 634.72c-11 0-20-9.5-20-21.17s9-21.17 20-21.17 20 9.5 20 21.17S658.67 634.72 647.67 634.72zm0-32c-5.32 0-9.65 4.88-9.65 10.87s4.33 10.87 9.65 10.87 9.65-4.88 9.65-10.87S653 602.68 647.67 602.68zM782.71 634.72c-11 0-19.95-9.5-19.95-21.17s9-21.17 19.95-21.17 20 9.5 20 21.17S793.71 634.72 782.71 634.72zm0-32c-5.32 0-9.65 4.88-9.65 10.87s4.33 10.87 9.65 10.87 9.65-4.88 9.65-10.87S788 602.68 782.71 602.68zM815.07 497.16c-11 0-19.95-9.5-19.95-21.17s9-21.17 19.95-21.17 20 9.5 20 21.17S826.07 497.16 815.07 497.16zm0-32c-5.32 0-9.65 4.88-9.65 10.87s4.33 10.88 9.65 10.88 9.65-4.88 9.65-10.88S820.39 465.11 815.07 465.11zM729.28 481.13c-11 0-19.95-9.5-19.95-21.17s9-21.17 19.95-21.17 20 9.5 20 21.17S740.29 481.13 729.28 481.13zm0-32c-5.32 0-9.65 4.88-9.65 10.87s4.33 10.87 9.65 10.87 9.65-4.88 9.65-10.87S734.61 449.09 729.28 449.09zM764.84 404.82c-11 0-20-9.5-20-21.17s9-21.17 20-21.17 20 9.5 20 21.17S775.84 404.82 764.84 404.82zm0-32c-5.32 0-9.65 4.88-9.65 10.87s4.33 10.87 9.65 10.87 9.65-4.88 9.65-10.87S770.17 372.78 764.84 372.78zM631.67 358.3c-11 0-20-9.5-20-21.17s9-21.17 20-21.17 20 9.5 20 21.17S642.68 358.3 631.67 358.3zm0-32c-5.32 0-9.65 4.88-9.65 10.88S626.35 348 631.67 348s9.65-4.88 9.65-10.87S637 326.25 631.67 326.25zM581.84 302.21c-11 0-20-9.5-20-21.17s9-21.17 20-21.17 20 9.5 20 21.17S592.84 302.21 581.84 302.21zm0-32c-5.32 0-9.65 4.88-9.65 10.87s4.33 10.87 9.65 10.87 9.65-4.88 9.65-10.87S587.16 270.17 581.84 270.17zM384.9 356.81c-11 0-20-9.5-20-21.17s9-21.17 20-21.17 20 9.5 20 21.17S395.91 356.81 384.9 356.81zm0-32c-5.32 0-9.65 4.88-9.65 10.88s4.33 10.87 9.65 10.87 9.65-4.88 9.65-10.87S390.23 324.77 384.9 324.77zM446.52 324.77c-11 0-20-9.5-20-21.17s9-21.17 20-21.17 20 9.5 20 21.17S457.52 324.77 446.52 324.77zm0-32c-5.32 0-9.65 4.88-9.65 10.87s4.33 10.87 9.65 10.87 9.65-4.88 9.65-10.87S451.84 292.72 446.52 292.72zM408.31 660.42c-11 0-20-9.5-20-21.17s9-21.17 20-21.17 19.95 9.5 19.95 21.17S419.31 660.42 408.31 660.42zm0-32c-5.32 0-9.65 4.88-9.65 10.87s4.33 10.87 9.65 10.87 9.65-4.88 9.65-10.87S413.63 628.38 408.31 628.38zM322.15 632.7c-11 0-20-9.5-20-21.17s9-21.17 20-21.17 20 9.5 20 21.17S333.16 632.7 322.15 632.7zm0-32c-5.32 0-9.65 4.88-9.65 10.88s4.33 10.87 9.65 10.87 9.65-4.88 9.65-10.87S327.48 600.65 322.15 600.65zM227.72 616.68c-11 0-20-9.5-20-21.17s9-21.17 20-21.17 20 9.5 20 21.17S238.72 616.68 227.72 616.68zm0-32c-5.32 0-9.65 4.88-9.65 10.87s4.33 10.88 9.65 10.88 9.65-4.88 9.65-10.88S233 584.63 227.72 584.63zM205.77 497.16c-11 0-20-9.5-20-21.17s9-21.17 20-21.17 20 9.5 20 21.17S216.77 497.16 205.77 497.16zm0-32c-5.32 0-9.65 4.88-9.65 10.87s4.33 10.88 9.65 10.88 9.65-4.88 9.65-10.88S211.09 465.11 205.77 465.11zM279.86 481.13c-11 0-20-9.5-20-21.17s9-21.17 20-21.17 19.95 9.5 19.95 21.17S290.86 481.13 279.86 481.13zm0-32c-5.32 0-9.65 4.88-9.65 10.87s4.33 10.87 9.65 10.87 9.65-4.88 9.65-10.87S285.18 449.09 279.86 449.09zM243.8 404.82c-11 0-19.95-9.5-19.95-21.17s9-21.17 19.95-21.17 20 9.5 20 21.17S254.8 404.82 243.8 404.82zm0-32c-5.32 0-9.65 4.88-9.65 10.88s4.33 10.87 9.65 10.87 9.65-4.88 9.65-10.87S249.12 372.78 243.8 372.78z" data-name="&lt;Group&gt;"/></g></svg>