<?xml version="1.0" encoding="utf-8"?>
<!-- Generator: Adobe Adobe Illustrator 24.2.0, SVG Export Plug-In . SVG Version: 6.00 Build 0)  -->
<svg version="1.1" id="Layer_1" xmlns="http://www.w3.org/2000/svg" xmlns:xlink="http://www.w3.org/1999/xlink" x="0px" y="0px"
	 viewBox="0 0 902 1164" style="enable-background:new 0 0 902 1164;" xml:space="preserve">
<style type="text/css">
	.st0{fill:#015320;}
	.st1{fill:#055422;}
	.st2{fill:#045421;}
	.st3{fill:#065523;}
	.st4{fill:#095626;}
	.st5{fill:#DFE0E0;}
	.st6{fill:#1D6B39;}
	.st7{fill:#00A862;}
	.st8{fill:#00A863;}
	.st9{fill:#00A764;}
	.st10{fill:#00A565;}
	.st11{fill:#00A45E;}
	.st12{fill:#356770;}
	.st13{fill:#36694A;}
	.st14{fill:#002409;}
	.st15{fill:#001D06;}
</style>
<g>
	<path class="st0" d="M169.91,672.84c2.83-0.38,5.66-0.75,10.26-1.37c-31.45-29.08-54.63-62.3-74.33-98.74
		c0,3.2,0.34,6.45-0.14,9.58c-0.24,1.57-1.99,2.91-3.06,4.35c-1.04-1.15-2.08-2.31-3.13-3.45c-0.99-1.08-2-2.15-3.01-3.22
		c-0.7,0.24-1.39,0.48-2.09,0.71c0.21,6.83,0.39,13.66,0.63,20.49c0.24,6.92,0.47,13.85,0.88,20.77c0.1,1.74,0.52,3.63,1.38,5.11
		c1.43,2.46,3.24,4.72,5.07,6.91c6.37,7.67,6.89,16.68,1.39,25.17c-0.67,1.03-1.27,2.18-1.57,3.36c-1.14,4.4-3.26,5.14-7.01,2.47
		c-0.95-0.68-2.78-0.33-4.17-0.14c-3.45,0.46-6.79,1.06-6.04-4.36c0.13-0.93-0.15-2.6-0.7-2.83c-5.18-2.18-4.84-7.14-6-11.35
		c-0.09-0.34,0.03-0.79-0.15-1.06c-4.21-6.43-4.9-12.78,0.16-19.18c0.58-0.73,0.97-2.37,0.55-3.03c-3.7-5.88-1.3-12.12-1.6-18.24
		c-0.46-9.39-1.68-18.86-3.82-28.01c-1.8-7.71-2.02-15.08-0.94-22.83c1.11-7.98,1.16-16.1,1.81-24.15c0.27-3.4,0.62-6.83,1.38-10.14
		c1.34-5.79-0.48-10.36-5.23-13.49c-6.32-4.16-7.55-9.9-6.72-16.91c0.67-5.6,0.57-10.9-2.48-16.47c-2.96-5.4-3.55-12.14-4.86-18.36
		c-0.28-1.32,0.57-3.08,1.34-4.38c2.99-5.04,6.23-9.94,9.2-14.99c0.57-0.97,0.45-2.43,0.41-3.66
		c-1.23-44.46,8.89-86.59,26.56-127.04c15.94-36.51,36.93-69.97,61.9-100.99c19.22-23.88,40.28-45.99,63.44-66.02
		c30.53-26.41,63.43-49.24,101.55-63.46c19.42-7.24,39.46-12.38,60.18-14.39c6.74-0.65,13.47-1.88,20.21-1.94
		c29.56-0.27,57.17,7.36,83.21,21.2c19.46,10.34,37.3,22.85,52.39,38.97c15.57,16.65,26.71,35.78,30.21,58.69
		c3.49,22.87-2.32,43.94-12.92,64.03c-7.01,13.28-17.27,23.56-28.75,31.46c5.5,6,10.85,11.99,16.42,17.76
		c0.95,0.98,2.81,1.44,4.28,1.51c9.01,0.45,18.03,0.77,27.04,1.04c2.31,0.07,4.73,0.22,6.92-0.37c23.75-6.43,48.02-8.15,72.39-6.72
		c20.4,1.19,40.91,2.82,60.61,9.01c25.69,8.07,47.89,20.92,61.11,45.79c6.2,11.66,10.09,24.24,11.1,37.16
		c1.38,17.68,1.96,35.57,0.89,53.25c-1.15,18.97-3.94,37.92-7.21,56.67c-4.37,25.05-9.52,49.99-14.99,74.83
		c-9.23,41.88-19.52,83.54-28.34,125.5c-6.92,32.9-12.67,66.06-18.19,99.23c-2.72,16.33-4.05,32.92-5.44,49.44
		c-1.62,19.26-2.6,38.58-3.96,59.37c5.44-3.69,9.73-6.43,13.84-9.41c28.29-20.47,56.53-41.01,84.82-61.5
		c7.94-5.75,16.56-9.72,26.46-10.98c14.64-1.85,21.41,3.32,18.08,18.63c-3.33,15.28-10.51,28.95-18.83,41.96
		c-22.61,35.35-51.11,65.74-81.61,94.21c-20.15,18.81-41.09,36.83-65.68,49.92c-14.45,7.69-29.73,12.03-46.19,11.44
		c-3.47-0.12-5.92,0.44-8.01,3.72c-3.64,5.7-6.77,11.36-6.4,18.41c0.09,1.75-0.25,3.62-0.82,5.29c-3.34,9.84-2.03,19.75-0.53,29.66
		c0.23,1.55,1.13,2.99,1.62,4.52c1.23,3.84,2.89,7.63,3.5,11.57c1.14,7.41,1.77,14.91,2.39,22.39c0.45,5.51-0.6,10.78-4.22,15.15
		c-2.52,3.05-10.78,2.61-14.96-0.96c-1.99-1.7-4.13-3.94-4.8-6.33c-2.11-7.48-4.77-15.12-4.96-22.76c-0.22-9-2.28-17.19-4.87-25.64
		c-1.42-4.64-1.64-10.65,0.09-15.05c3.66-9.29,2.53-18.31,1.28-27.54c-0.77-5.68-2.28-11.32-2.48-17.01
		c-0.14-3.93-1.71-5.22-5.04-6.2c-17.96-5.29-35.85-10.82-53.81-16.12c-8-2.36-16.11-4.37-24.08-6.52c-0.37,0.32-0.8,0.51-0.84,0.75
		c-1.66,11.49-3.32,22.98-4.91,34.48c-0.49,3.57-2.26,5.14-7.37,3.71c0,12.63,0,24.67,0,36.86c-2.02-0.15-2.7,0.02-3.06-0.25
		c-7.77-5.72-9.28-8.59-9.37-18.85c-0.14-15.66-0.17-31.32-0.15-46.99c0.01-3.7-0.12-6.72-4.25-8.8c-3.17-1.59-5.51-4.83-9.04-8.11
		c-1.15,3.19-2,5.61-2.9,8.01c-1.55,4.13-3.83,8.14-4.5,12.4c-0.6,3.86,0.48,8,0.94,12.01c0.24,2.11,1.74,4.68,0.98,6.19
		c-4.13,8.19,0.89,16.01,0.63,24.01c-0.07,2.07,3.56,4.08,3.95,6.38c1.37,8.12,1.8,16.4,3.13,24.53c0.53,3.26,2.28,6.39,3.82,9.4
		c1.71,3.36,1.35,6.2-1.22,8.87c-0.6,0.63-1.57,1.34-1.59,2.03c-0.29,9.39-8.01,8.82-13.88,9.77c-2.42,0.39-6.41-1.46-7.77-3.55
		c-2.62-4.03-3.98-8.91-5.61-13.53c-0.25-0.7,0.6-2.22,1.36-2.76c5.34-3.8,5.19-9.73,5.32-15.1c0.18-7.28-0.8-14.59-1.2-21.89
		c-1.21-22.09,1.49-43.98,2.91-65.96c0.26-4.05-2.86-9.06-5.82-12.37c-3.04-3.41-3.84-6.35-3.07-10.59
		c0.76-4.13,0.48-8.44,1.09-12.61c2.3-15.63,13.07-26.84,21.02-39.48c10.38-16.51,21.43-32.54,25.9-52.07
		c2.97-12.98,2.84-25.7,0.52-38.71c-1.59-8.93-8.43-11.49-15.24-13.81c-9.11-3.1-18.55-5.25-27.79-8c-2.42-0.72-4.58-2.25-6.96-3.12
		c-1.23-0.45-2.97-0.8-4.01-0.28c-11.09,5.58-22.57,10.61-32.95,17.33c-7.23,4.68-12.83,11.64-16.12,20.24
		c-7.66,20.05-17.11,39.27-32.3,54.79c-16.63,16.99-36.87,27.98-60.53,31.28c-38.06,5.31-72.01-6.22-103.64-26.66
		c-20.72-13.39-39.25-29.44-57.56-45.84c-12.47-11.17-25.24-22.07-34.76-35.97c-9.76-14.25-19.1-29.13-21.07-46.66
		c-2.83-25.17,2.41-48.09,23.6-65.61c2.95-1.66,5.16-3.26,7.59-4.37c13.63-6.2,27.32-12.29,41.4-18.39
		C161.86,676.9,165.88,674.87,169.91,672.84z M722.89,921.8c0.12,0.05,0.25,0.1,0.37,0.15c-0.17-0.17-0.34-0.34-0.45-1.34
		c-0.39-1.37-0.55-2.88-1.22-4.08c-1.33-2.36-2.95-4.56-4.45-6.83c-1.29,0.86-3.79,2.18-3.66,2.5c0.95,2.52,2.41,4.85,3.74,8.06
		c3.76,9.34,7.52,18.68,11.58,28.78c2.05-1.95,3.39-3.23,4.91-4.69c-3.07-4.81-6.08-9.19-8.71-13.79c-2.07-3.61-3.65-7.5-4.8-11.16
		C721.06,920.08,721.91,920.76,722.89,921.8z M520.46,963.24c0.03-0.23,0.07-0.46,0.72-0.32c3.87,4.72,8.83,7.32,15.56,7.84
		c-4.28-5.09-8.48-9.67-12.18-14.63c-2.48-3.32-4.23-7.18-6.26-10.85c0,0,0.05-0.05,0.7,0.26c4.58,5.51,9.07,11.09,13.76,16.51
		c3.44,3.97,6.61,8.54,10.89,11.31c3.67,2.38,8.75,2.59,13.96,3.96c-1.09-1.88-1.68-3.36-2.66-4.5c-6.1-7.02-12.49-13.79-18.4-20.96
		c-6.7-8.12-12.99-16.58-19.23-25.08c0,0,0.23-0.19,0.95-0.03c6.81,7.01,13.93,13.74,20.34,21.09c7.97,9.14,15.18,18.95,23.09,28.15
		c2.23,2.6,5.75,4.08,9.5,6.64c0-2.26,0-2.96,0.1-3.78c0,0,0.1-0.12,0.76,0.24c2.65,3.78,5.95,6.17,10.72,5.25
		c-0.61-1.87-1.19-3.67-1.71-5.52c0,0,0.05-0.06,0.73,0.24c0.99,1.26,2.26,2.4,2.93,3.81c2.45,5.18,7.21,5.66,12.52,6.7
		c-18.16-23.27-35.88-45.98-53.61-68.69c0.46-0.39,0.92-0.78,1.38-1.17c1.14,1.03,2.42,1.94,3.4,3.1
		c8.44,10.03,16.7,20.22,25.26,30.14c4.27,4.95,9.07,9.45,13.67,14.9c4.2,5.96,8.39,11.92,12.59,17.88c0.42-0.23,0.84-0.46,1.25-0.7
		c0.14-1,0.28-2,1.06-2.66c4.9,4.87,7.09,13.1,16.64,13.31c-3.08-4.9-5.83-9.27-8.11-13.69c0,0,0.47,0.06,1.19,0.27
		c2.44,3.53,4.92,7.03,7.3,10.61c3.28,4.95,4.72,5.63,11.16,5.06c-15.49-26.44-37.43-48.87-48.92-77.85
		c4.28,4.42,8.32,9,11.62,14.07c12.71,19.53,25.23,39.19,37.71,58.87c4.28,6.75,12.03,9.31,20.09,6.11
		c-20.08-39.62-40.16-79.23-60.24-118.84c0.77-0.39,1.54-0.78,2.31-1.17c20.23,39.88,40.46,79.75,60.65,119.54
		c7.14-1.41,7.19-1.49,5.37-8c0,0,0.13-0.1,0.87,0.08c4.2,5.56,4.7,5.6,11.1,0.67c-4.26-9.71-8.69-19.46-12.83-29.33
		c-3.53-8.41-6.73-16.96-9.97-25.54c0,0,0.1-0.09,0.76,0.27c5.1,10.89,10.29,21.73,15.26,32.68c3.15,6.92,5.97,13.99,8.94,20.98
		c9.9-4.45,10.3-5.9,4.34-14.16c-0.21-0.29-0.49-0.54-0.68-0.84c-3.35-5.24-7.06-10.29-9.95-15.78
		c-8.77-16.66-17.24-33.48-25.77-50.26c-2.39-4.7-4.6-9.5-7.15-14.81c1.26,0.32,1.74,0.29,1.88,0.49
		c7.88,11.56,12.55,24.8,21.85,35.91c8.53,10.2,13.01,23.8,19.27,35.9c2.76,5.33,5.53,10.65,8.74,16.84c2.6-3.74,8.62-3.3,5.65-9.98
		c-6.26-14.11-11.69-28.58-17.48-42.89c-0.12-0.29-0.52-0.46-0.78-0.67c-1.53-0.13-3.04-0.26-5.43-0.46
		c2.76-2.44,4.85-4.32,6.96-6.16c8.77-7.65,17.34-15.54,26.42-22.8c3.17-2.53,4.51-4.81,4.58-8.86c0.51-28.42,0.77-56.86,2.18-85.23
		c0.96-19.47,3.02-38.95,5.71-58.27c2.88-20.73,6.72-41.34,10.74-61.88c5.29-27.04,11.2-53.95,16.78-80.94
		c4.46-21.56,9.07-43.09,13.17-64.71c3.33-17.58,6.34-35.24,8.85-52.96c2.83-20.01,5.85-40.07,7.1-60.21
		c1.19-19.14,0.6-38.33-3.69-57.37c-3.79-16.85-11.83-30.46-25.78-40.29c-19.71-13.89-42.7-17.76-65.97-20.26
		c-6.42-0.69-12.95-0.29-19.42-0.58c-12.82-0.58-25.63-1.28-38.44-1.94c1.4,1.91,3.09,2.75,4.73,3.7
		c22.14,12.91,41.19,28.87,51.17,53.39c4.09,10.05,6.24,20.74,5.4,31.53c-0.8,10.37-4.31,20.13-8.69,29.73
		c-8.57,18.77-23.24,23.5-39.62,22.3c-12.04-0.88-23-5.36-33.46-11.13c-8.49-4.67-16.75-9.77-25.41-14.1
		c-3.39-1.7-7.56-2-11.43-2.45c-0.74-0.09-2.52,2.13-2.5,3.26c0.32,16.46,4.33,32.29,8.97,47.94c3.26,10.98,7.05,21.79,10.72,33.01
		c1.74-0.95,2.9-1.43,3.88-2.15c12.35-9.1,25.99-13.93,41.51-14.3c12.26-0.3,22.3,4,30.15,12.73c9.86,10.96,14.03,24.83,17.62,38.86
		c3.93,15.35,5.41,30.97,6.72,46.73c1.57,18.96,0.96,37.69-2.56,56.26c-2.72,14.38-8.79,27.63-16.28,40.21
		c-7.17,12.04-17.69,18.09-31.63,17.62c-6.76-0.22-13.52-1.13-20.24-2c-4.21-0.55-7.04,0.12-8.86,4.64
		c-2.55,6.3-5.55,12.49-9.04,18.32c-11.63,19.47-29.37,31.16-50.42,38.19c-17.05,5.7-34.59,9.08-52.55,10.27
		c-4.98,0.33-9.94,1.04-14.91,1.57c5.44,2.69,10.9,4.27,16.3,6.09c18.51,6.24,32.92,16.6,37.74,36.99
		c3.35,14.18,3.26,28.35,2.11,42.78c-1.17,14.63-5.79,28.08-12.07,40.99c-5.87,12.09-12.64,23.75-18.81,35.21
		c3.27,4.61,6.62,9.34,9.23,13.95c-3.67-3.84-7.33-7.68-11.14-11.67c-4.46,4.79,0.85,6.85,2.25,10.71c1.07,2.46,2.15,4.93,2.46,7.41
		c-2.88-3.84-5.76-7.68-8.95-11.93c-3.14,4.68-5.88,8.77-9.13,13.6c7.29,2.04,13.86,3.88,20.82,5.83c-0.84-3.17-1.42-5.36-1.3-7.29
		c0.96,1.49,2.07,2.9,2.84,4.48c2.23,4.56,5.85,6.32,10.77,5.87c-0.08-1.51-0.15-2.87,0.46-3.91c2.71,1.89,3.25,7.01,8.58,6.07
		C521.36,965.39,520.88,964.67,520.46,963.24z M381.12,430.57c0.09-0.31,0.08-0.62,0.42-1.6c2.18-4.1,4.05-8.41,6.63-12.24
		c2.57-3.8,1.64-6.52-0.74-9.99c-12.72-18.53-25.2-37.24-37.75-55.89c-4.1-6.08-8.18-12.18-12.68-18.89
		c-2.75,5.07-5.04,9.29-7.84,14.05c-0.08,0.96-0.15,1.93-0.62,2.83c0,0-0.39-0.04-1.18,0.02c-4.43,8.02-8.2,16.23-7.02,25.83
		c0,0-0.05-0.01-0.58,0.17c-0.14,0.34-0.29,0.67-0.5,1.86c-1.44,8.01-2.88,16.02-4.95,24.59c-1.81,11.63-5.14,23.2-1.83,35.83
		c-0.19,1.54-0.38,3.08-0.74,5.47c0.14,0.83,0.28,1.67,0.45,2.91c0.13,0.25,0.33,0.44,0.57,1.48c0.9,4.8,1.79,9.61,2.66,15.04
		c0.22,0.77,0.43,1.54,0.68,3.13c0.13,0.53,0.25,1.06,0.23,2.06c0.16,0.31,0.41,0.52,0.74,1.34c0.11,0.47,0.22,0.94,0.29,1.91
		c0.18,0.31,0.45,0.51,0.79,1.43c0.87,2.26,1.75,4.51,2.65,7.27c0.23,0.42,0.46,0.84,0.74,2.04c0.12,0.23,0.23,0.46,0.25,1.14
		c0.16,0.27,0.4,0.47,0.76,1.34c4.82,7.4,9.64,14.8,14.96,22.99c3.25-3.66,5.47-6.15,8.08-8.83c0.33-0.2,0.39-0.45,0.5-1.49
		c-0.78-1.61-1.56-3.22-2.22-5.47c0.07-0.21,0.13-0.42,0.88-0.26c1,1.12,2,2.24,3.28,3.67c1.69-2.83,3.37-5.02,4.34-7.48
		c0.89-2.24,1.01-4.78,1.75-7.62c0.14-0.35,0.4-0.54,1.2,0c0.78-0.68,1.86-1.2,2.3-2.06c3.67-7.09,7.22-14.24,11.29-21.95
		c0.34-1.13,0.35-2.93,1.07-3.29c5.18-2.63,5.52-7.65,6.58-12.29c0,0-0.09-0.07,0.67-0.15c0.87-1.75,1.74-3.5,2.72-5.73
		c0,0,0.04-0.5,0.45-0.96C380.63,432.2,380.81,431.61,381.12,430.57z M758.86,909.25c-3.13-5.97-6.27-11.93-9.74-18.54
		c-9.2,5.34-18.11,10.51-27.09,15.73c5.25,11.62,10.36,22.94,16.11,35.65c6.47-6.81,11.65-13.06,17.68-18.36
		c4.8-4.23,6.63-8.38,4.41-13.96c1.09,1.8,2.17,3.61,3.56,5.91c4.47-4.93,9-9.76,13.27-14.79c0.73-0.86,0.93-2.89,0.44-3.94
		c-2.78-5.97-5.84-11.81-8.96-17.99c-5.82,3.46-11.16,6.64-16.77,9.98c0.68,1.69,1.3,3.14,1.85,4.62
		C755.6,898.88,757.58,904.22,758.86,909.25z M481.54,299.86c1.03,0.69,2.23,1.22,3.05,2.1c3.51,3.78,7,3.55,11.83,1.86
		c13.85-4.84,28-8.78,42.17-13.12c-5.28-4.76-11.35-10.23-17.72-15.97c-27.25,16.38-58.69,19.29-90.91,20.43
		c0.81,1.23,1.28,1.97,1.49,3.16c-0.25,0.27-0.54,0.47-1.54,0.24c-2.41-1.22-4.72-3.21-7.25-3.55c-18.09-2.41-36.23-4.48-54.79-6.71
		c-3.84,5.26-7.95,11.83-13.03,17.53c-3.94,4.41-3.28,7.51-0.17,11.86c10.08,14.12,19.82,28.49,29.64,42.8
		c6.52,9.5,12.96,19.06,19.53,28.73c4.29-6.11,8.47-11.71,12.19-17.59c0.89-1.4,1.08-4.28,0.22-5.58
		c-9.87-15.02-20.09-29.8-30.03-44.78c-5.93-8.94-11.53-18.1-17.28-27.15c0.58-0.38,1.15-0.75,1.73-1.13
		c16.97,24.13,33.91,48.28,48.39,73.04c10.88-11.18,21.9-22.44,32.82-33.8c1.46-1.52,2.43-3.52,4.43-5.48
		c0.95-0.26,2.04-0.3,2.81-0.82c9.17-6.16,18.29-12.39,27.62-18.74c-2.16-2.02-4.6-4.29-6.46-7.12
		C480.49,299.92,480.68,299.73,481.54,299.86z M611.63,518.16c11.11,9.09,22.23,18.18,33.77,27.62
		c-4.01-13.94-2.61-30.34-18.01-38.28c-16.04-8.27-32.47-8.49-48.51,0.92c1.14,7.87,7.11,12.38,11.92,17.48
		c15.94,16.87,32.14,33.49,48.26,50.19c2.87,2.97,5.87,5.83,8.81,8.74c0.73-7.77,0.72-14.94-0.16-22.01
		c-0.48-3.84-1.41-8.51-3.92-11.06c-8.31-8.43-17.51-15.97-26.17-24.05c-2.81-2.63-5.04-5.88-7.07-9.35
		C610.7,518.16,610.84,517.98,611.63,518.16z M246.63,822.85c4.42,7.34,9.04,14.57,13.2,22.04c4.81,8.62,9.16,17.51,13.85,26.2
		c1.49,2.75,2.81,6.11,7.4,5.62c-1.28-2.87-2.36-5.3-3.44-7.72c1.65,0.77,2.4,1.96,2.97,3.24c1.82,4.05,4.22,7.03,9.35,5.93
		c0.79-0.17,1.73,0.53,2.6,0.54c4.82,0.06,9.64,0.03,14.46,0.03c0.26-0.65,0.52-1.31,0.78-1.96c-4.11-7.32-8.27-14.61-12.3-21.97
		c-1.96-3.58-3.92-7.19-5.4-10.98c-1.14-2.92-1.15-6.29-2.3-9.21c-3.4-8.66-7.12-17.19-10.73-25.76c0,0-0.02,0.02,0.75,0.04
		c4.11,7.68,8.46,15.24,12.27,23.06c6.52,13.38,12.68,26.94,19.09,40.37c0.65,1.36,2.37,3.57,2.89,3.39
		c1.9-0.67,3.51-2.19,4.74-3.05c2.84-0.9,5.46-1.73,9.21-2.92c-8.23-15.06-15.84-28.97-23.49-42.98c0.61-0.56,1.48-1.36,1.96-1.8
		c8.33,13.85,16.64,27.66,24.87,41.36c4.8-2.19,5.71-4.82,3.87-8.67c-2.7-5.64-5.18-11.38-7.54-17.34c0,0,0.24-0.24,0.84,0.19
		c3.92,6.1,7.84,12.19,11.78,18.31c6.38-4.64,5.92-4.91,2.61-12.28c-3.42-7.62-10.19-13.62-10.83-22.54c0,0,0.01-0.01,0.72,0.22
		c1.97,3.01,3.93,6.01,5.9,9.02c-0.06-2.49-0.88-4.71-1.7-6.92c-2.01-5.46-4.01-10.92-6-16.39c0,0,0.01-0.01,0.79-0.05
		c1.05,1.16,2.4,2.15,3.09,3.49c5.64,10.96,11.16,21.98,17.2,33.93c2.47-3.79,4.94-7.01,6.74-10.58c0.82-1.63,0.96-4.19,0.29-5.88
		c-2.38-6-5.38-11.75-7.88-17.71c-3.02-7.19-5.77-14.49-8.63-21.74c0.61-0.26,1.22-0.52,1.83-0.78
		c5.82,13.12,11.63,26.25,18.09,40.8c10.94-27.07,25.66-49.8,53.65-61.46c-43.95-4.8-86.32-13.17-125.5-29.44
		c-7.09,8.88-13.15,17.85-20.61,25.44c-6.77,6.9-15.75,8.97-25.41,5.69c-11.78-4-21.33-11.59-31.02-19.01
		c-9.98-7.65-18-16.89-24.27-27.8c-5.22-9.08-10.02-18.2-8.86-29.72c-1.67,0.68-2.55,0.87-3.25,1.34
		c-16.04,10.86-32.17,21.6-48.01,32.76c-3.55,2.5-7.97,6.15-8.62,9.86c-1.19,6.83-0.89,14.31,0.61,21.12
		c3.16,14.39,13,24.61,23.98,33.63c13.31,10.94,26.9,21.53,40.25,32.43c18.11,14.79,37.35,27.82,57.99,38.94
		c0.69-1.12,1.18-1.91,1.33-2.15c2.45,2.01,4.76,3.89,7.07,5.78c0.32-0.4,0.65-0.79,0.97-1.19c-4.8-9.43-9.61-18.86-14.41-28.29
		c0.41-0.21,0.82-0.42,1.24-0.63c2.74,4.7,5.48,9.41,8.62,14.78c0.45-1.91,0.68-2.9,1.17-5.02c3.67,6.62,7.46,12.18,9.95,18.26
		c2.96,7.22,8.74,7.28,14.02,7.79c-7.58-14.83-15.23-29.74-22.82-44.68c-1.13-2.22-1.97-4.58-2.83-6.98
		C245.77,822.87,245.89,822.77,246.63,822.85z M524.55,533.88c11.5,16.66,23.04,33.29,34.49,49.98c3.93,5.73,7.64,11.6,11.45,17.41
		c-1.21-11.01-3.14-21.59-6.12-31.86c-2.53-8.7-5.09-17.77-9.71-25.41c-9.84-16.27-21.1-31.68-31.62-47.55
		c-2.37-3.57-4.1-7.57-6.12-11.37c0.7-0.44,1.4-0.88,2.09-1.33c10.1,14.27,20.2,28.55,30.3,42.82c-0.41-3.19-1.43-6.18-2.46-9.16
		c-4.74-13.74-10.18-27.28-14.04-41.26c-3.61-13.07-5.83-26.56-8.15-39.95c-2.18-12.54-1.9-25.13,2.86-37.12
		c2.67-6.73,7.39-12.01,14.73-13.99c4.48-1.21,9.19-1.61,13.64-2.91c6.42-1.87,12.51-0.98,18.35,1.63
		c7.21,3.22,14.47,6.47,21.28,10.45c10.1,5.9,20.03,12.09,31.73,14.21c3.62,0.66,8.1,1.33,11.09-0.18c6.5-3.3,7.52-10.3,7.45-16.83
		c-0.17-16.52-10.04-27.82-22.19-36.98c-15.93-12-33.65-20.46-53.6-23.86c-15.03-2.56-29.66-1.47-43.98,3.5
		c-22.66,7.86-42.22,20.9-58.56,38.2c-12.17,12.89-23.11,26.98-34.14,40.9c-3.6,4.53-5.78,10.19-8.75,15.58
		c-0.25,0.17-1.54,0.58-2.05,1.45c-4.02,6.8-8.16,13.55-11.76,20.57c-10.09,19.71-19.55,39.76-30.05,59.24
		c-4.9,9.08-10.86,17.87-17.73,25.54c-9.57,10.69-22.49,15.32-35.15,7.37c-4.23-2.66-8.25-5.73-12.06-8.97
		c-8.23-7.01-13.25-16.34-18.58-25.58c-10.78-18.71-16.73-38.8-19.03-61.12c-0.04-11.54-0.08-23.08,0.06-35.57
		c0.11-1.98-0.04-4.01,0.38-5.92c3.38-15.2,6.37-30.5,10.45-45.51c4.13-15.21,10.88-29.52,21.01-41.62
		c10.12-12.09,21.46-23.16,32.27-34.68c1.42-1.52,2.83-3.05,3.9-4.2c-5.31-5.21-10.14-9.94-14.97-14.67
		c8.57,1.13,16.18,5.12,23.74,5.01c7.45-0.11,14.83-4.36,23.31-7.15c-1.78,4.23-3.11,7.37-4.67,11.07
		c9.73,0.75,18.64,2.02,27.55,1.97c10.91-0.06,21.88-0.73,32.71-2.07c12.58-1.55,25.27-3.22,37.49-6.43
		c21.07-5.53,39.38-16.23,53.56-33.21c8.88-10.64,14.15-22.87,14.99-36.75c1.24-20.47-6.43-37.4-20.61-51.9
		c-14.84-15.17-32.49-25.96-51.67-34.52c-17.89-7.98-36.76-12-56.19-13.43c-16.83-1.24-33.36,1.63-49.5,5.83
		c-23.11,6.01-44.97,15.58-64.74,28.88c-19,12.78-37.21,26.81-55.2,41.01c-9.85,7.78-18.94,16.65-27.66,25.72
		c-20.05,20.88-39.6,42.26-55.19,66.81c-9.82,15.46-19.94,30.84-28.32,47.09c-11.06,21.44-18.84,44.23-23.18,68.15
		c-3.71,20.4-6.22,40.84-3.47,61.49c2.77,20.78,6.87,41.27,13.69,61.23c10.47,30.65,24.5,59.34,43.12,85.91
		c16.13,23.02,35.27,43.08,57.06,60.59c19.07,15.32,39.49,28.76,61.35,39.81c7.81,3.95,16.11,6.94,24.19,10.36
		c-17.89-20.78-38.02-38.91-54.85-60.12c3.61,2.18,6.97,4.59,9.84,7.5c16.71,16.93,33.21,34.07,50.03,50.89
		c3.04,3.04,6.93,5.93,10.96,7.13c14.76,4.38,29.73,8.05,44.64,11.9c2.36,0.61,4.82,0.8,7.01,1.15
		c-18.37-23.68-36.46-46.88-54.37-70.21c-2.23-2.91-3.56-6.52-5.18-9.92c0,0,0.12-0.13,0.77,0.19
		c19.17,23.95,38.68,47.63,57.27,72.02c5.16,6.76,10.53,10.64,18.77,11.17c3.37,0.22,6.68,1.28,10.05,1.61
		c9.32,0.92,18.66,1.66,28.43,2.51c-28.12-28.84-59.57-53.55-84.24-85.09c1.56,0.15,2.79,0.72,3.73,1.6
		c7.37,6.87,14.84,13.64,21.98,20.73c19.77,19.63,39.38,39.43,59.14,59.06c1.67,1.66,4.02,3.55,6.16,3.69
		c10.38,0.72,20.8,1.04,31.21,1.13c2.84,0.02,5.68-1.27,9.75-2.25c6.98,3.99,15.4-0.61,24.94,0c-30.93-33.43-60.89-65.81-90.85-98.2
		c0.38-0.38,0.76-0.77,1.14-1.15c0.59,0.31,1.3,0.5,1.75,0.95c8.34,8.42,16.87,16.67,24.93,25.36
		c12.59,13.56,24.85,27.43,37.26,41.15c8.67,9.58,17.34,19.16,26.06,28.68c0.9,0.98,2.18,2.3,3.27,2.29
		c8.54-0.06,16.11-3.49,24.59-6.92c-8.8-9.34-16.95-17.86-24.94-26.53c-10.48-11.36-20.74-22.92-31.25-34.25
		c-9.16-9.88-18.68-19.44-27.76-29.4c-5.76-6.32-11.01-13.12-16.4-19.78c0,0,0.07-0.08,0.81,0.02c4.24,4.07,8.7,7.94,12.69,12.24
		c19.29,20.82,38.46,41.75,57.67,62.65c3.89,4.23,7.72,8.52,11.63,12.74c6.69,7.23,13.41,14.42,20.18,21.69
		c4.7-2.51,8.85-4.74,13.22-7.08c-11.49-14.67-22.32-28.49-33.14-42.32c-18.9-24.15-37.84-48.28-56.65-72.51
		c-2.37-3.05-4.03-6.65-5.89-10.13c0,0,0.12-0.14,0.77,0.18c8.84,10.6,17.85,21.07,26.49,31.82c16.87,20.98,33.58,42.09,50.26,63.21
		c7.07,8.95,13.93,18.08,21.61,28.08c5.35-5.78,10.16-11.04,15.04-16.22c2.66-2.82,2.6-5.23,0.24-8.5
		c-10.29-14.25-20.32-28.68-30.38-43.1c-15.18-21.78-30.32-43.58-45.41-65.42c-1.88-2.73-3.33-5.76-4.98-8.65
		c0.56-0.35,1.12-0.71,1.68-1.06c27.62,39.55,55.25,79.1,83.46,119.49c2.59-8.89,7.67-16.14,4.51-25.13c0,0,0.13-0.14,0.79,0.12
		c0.81-0.98,2.29-1.92,2.34-2.94c0.51-9.31,1.48-18.68,0.9-27.95c-0.53-8.36-0.4-17.06-6.44-24.4c-5.67-6.89-10.39-14.57-15.39-22
		c-6.4-9.51-12.82-19.02-18.91-28.73c-3.97-6.34-7.38-13.04-10.88-19.73C523.69,533.86,523.84,533.7,524.55,533.88z M613.03,554.32
		c-9-9.79-18.01-19.59-27.01-29.38c3.48,14.2,7.52,27.87,11.87,41.43c0.94,2.94,2.7,5.77,4.63,8.22
		c14.9,18.96,29.93,37.81,44.66,56.37c-0.13,0.25,0.44-0.37,0.47-1.01c0.65-12.01,1.34-24.01,1.72-36.03
		c0.05-1.47-1.33-3.24-2.48-4.45C635.8,577.91,624.63,566.44,613.03,554.32z M389.81,405.25c0.84,1.21,1.69,2.42,2.48,3.56
		c2.22-3.63,4.28-7.2,6.53-10.64c1.78-2.71,1.61-4.85-0.3-7.68c-16.02-23.74-31.83-47.62-47.71-71.45c-0.74-1.11-1.59-2.16-2.7-3.65
		c-3.44,5.13-6.49,9.68-9.35,13.94C355.86,354.72,372.64,379.65,389.81,405.25z M613.07,594.31c-3.46-4.03-5.71-9.25-11-12.37
		c1.66,9.46,3.94,17.88,4.43,26.4c0.74,12.68,4.2,23.82,12.48,33.68c5.52,6.58,10.01,14.03,14.97,21.09
		c0.64,0.08,1.28,0.15,1.92,0.23c3.36-8.36,6.81-16.69,9.95-25.14c0.42-1.13-0.43-3.16-1.31-4.29
		C634.27,620.84,623.92,607.87,613.07,594.31z M198.47,706.17c14.19,16.73,43.37,21.38,56.49,19.71
		c-19.98-13.68-40.85-27.97-61.59-42.16c-2.21,1.84-4.72,3.93-8.2,6.83C189.51,695.65,193.74,700.62,198.47,706.17z M799.5,874.29
		c5.52-7.59,11.04-15.17,16.57-22.76c-0.37-0.33-0.73-0.67-1.1-1c-14.55,8.95-29.11,17.89-43.78,26.91c3.15,6.72,6,12.79,9.32,19.88
		C787.17,889.24,793.1,882.07,799.5,874.29z M609.17,654.19c-0.92,7.19-1.84,14.38-2.79,21.84c9.87-0.64,18.89-1.74,25.44-9.74
		c-7.42-10.46-14.67-20.69-22.64-31.94C609.17,641.43,609.17,647.3,609.17,654.19z M714.01,949.12
		c-3.95-10.14-7.9-20.28-12.07-30.97c-3.15,1.08-6.57,2.26-9.51,3.27c6.06,14.48,11.9,28.43,17.76,42.43
		c7.56-3.85,7.76-4.37,5.16-10.89C714.97,951.96,714.63,950.94,714.01,949.12z M710.11,914.26c-3.78,2.44-3.73,6.09-2.44,9.6
		c2.22,6.05,5,11.9,7.35,17.91c1.83,4.7,3.35,9.52,5.05,14.39c5.49-3.06,6.53-6.01,3.82-11.33
		C718.93,935.09,715.04,924.83,710.11,914.26z M695.88,975.8c2.06-1.56,3.79-2.89,2.36-6.17c-6.03-13.79-11.76-27.72-17.64-41.58
		c-0.18-0.43-0.73-0.7-1.39-1.29c-1.32,0.7-2.66,1.4-3.98,2.09c4.9,11.76,9.61,23.14,14.38,34.49
		C691.39,967.59,693.32,971.77,695.88,975.8z M682.82,926.6c2.93,5.89,6.01,11.7,8.74,17.68c3.86,8.45,7.45,17.02,11.19,25.64
		c4.16-1.15,4.17-3.56,2.6-6.62c-6.23-12.1-12.41-24.24-18.77-36.27C686.17,926.27,684.35,926.26,682.82,926.6z M94.27,575.79
		c-0.79-4.01-1.58-8.02-2.36-12.03c-0.65,0.16-1.3,0.32-1.95,0.48c0.8,4.12,1.58,8.25,2.47,12.35
		C92.45,576.71,93.59,576.6,94.27,575.79z"/>
	<path class="st1" d="M778.01,668.22c3.61-16.26,7.1-32.08,10.75-47.86c4.94-21.35,9.35-42.86,18.86-62.84
		c3.39-7.12,7.12-13.64,15.89-15.42c6.45-1.31,10.95,1.71,11.08,8.37c0.28,14.03-4.2,27.15-8.58,40.12
		c-12.52,37.03-26.45,73.61-38.11,110.91c-11.63,37.22-21.17,75.09-31.66,112.68c-0.41,1.46-1.08,2.85-2.61,4.04
		C760.22,768.08,768.14,718.23,778.01,668.22z"/>
	<path class="st1" d="M229.17,968.2c-18.85-2.99-34.21-12.35-48.67-23.26c-27.57-20.8-54.52-42.44-77.71-68.14
		c-10.76-11.92-19.67-25.5-29.37-38.37c-1.99-2.64-3.75-5.46-5.61-8.2c0.45-0.38,0.9-0.76,1.34-1.13c2.87,3.09,5.87,6.07,8.58,9.29
		c17.3,20.6,38.54,36.33,61.41,50.09c28.07,16.89,56.06,33.93,84.22,50.68c6.6,3.93,13.79,6.84,20.61,10.42
		c5.03,2.65,5.32,7.8,2.57,12.62C242.4,969.46,236.07,968.57,229.17,968.2z"/>
	<path class="st2" d="M558.11,67.8c15.3-1.72,33.69,11.11,38.68,27.08c6.29,20.16,10.68,40.84,11.3,61.93
		c0.53,18.04-0.81,36.13-1.36,54.2c-0.02,0.79-0.52,1.57-1.96,2.42c-0.32-1.52-0.92-3.05-0.93-4.57
		c-0.12-26.1-8.03-49.81-21.1-72.19c-6.23-10.67-10.98-22.18-16.81-33.1c-3.95-7.39-8.62-14.39-12.96-21.58
		c-0.46-0.77-0.8-1.61-1.2-2.41C547.95,72.07,549.37,69.34,558.11,67.8z"/>
	<path class="st3" d="M809.66,302.33c1.32,2.11,2.73,4.1,4.52,5.65c4.51,3.9,6.13,8.84,4.96,14.45c-1.16,5.57-5.39,7.99-10.72,9.21
		c-13.25,3.04-27.62-5.56-30.16-18.29c-1.28-6.44,2.98-15.15,9.15-18.66c6.1-3.48,16.64-2.56,21.11,2.21
		C809.59,298.03,809.49,300.27,809.66,302.33z M805,308.39c-0.97-0.38-2.05-1.2-2.89-1.01c-1.01,0.23-2.55,1.3-2.57,2.05
		c-0.04,1.22,0.82,3.41,1.55,3.52c1.57,0.24,3.37-0.44,4.91-1.12C806.28,311.72,805.79,309.83,805,308.39z"/>
	<path class="st4" d="M825.37,521.27c-3.53-2.7-6.99-4.88-9.75-7.75c-2.85-2.97-1.74-6.2,0.91-9.04c8.83-9.46,25.92-9.04,34.31,1.03
		c5.23,6.29,2.87,12.49-7.76,15.95C837.85,523.17,831.55,521.58,825.37,521.27z"/>
	<path class="st4" d="M280.86,968.67c-9.66-5.08-11.25-12.47-4.27-18.85c4.7-4.29,9.69-1.75,14.48-0.16
		c4.47,1.49,7.43,4.95,7.5,9.54C298.7,968.06,289.66,972.89,280.86,968.67z"/>
	<path class="st4" d="M854.54,792.57c0.51-5.06,4.01-7.35,7.73-7.16c3.16,0.16,6.8,2.15,9.13,4.45c3.19,3.16,2.28,8.09-0.95,10.41
		c-3.47,2.49-11.55,0.96-14.08-2.82C855.49,796.14,855.12,794.49,854.54,792.57z"/>
	<path class="st4" d="M547.89,58.24c-0.95,0.15-1.49,0.18-2.03,0.19c-4.44,0.08-7.95-1.81-8.77-6.17c-0.36-1.92,1.01-5.29,2.62-6.22
		c3.85-2.23,8.4-2.2,12.1,0.66C555.72,49.73,554.22,54.21,547.89,58.24z"/>
	<path class="st4" d="M111.75,627.54c3.11-3.45,5.61-1.31,7.44,0.77c1.48,1.68,2.49,4.11,2.79,6.33c0.12,0.88-2.78,3.24-3.36,2.96
		c-2.69-1.3-5.3-3.04-7.39-5.16C110.53,631.72,111.41,629.43,111.75,627.54z"/>
	<path class="st4" d="M645.61,1096.84c-3.52,0.34-6.27,0.12-6.53-3.91c-0.22-3.35,0.73-6.52,4.39-6.7c2.2-0.11,5.59,1.21,6.5,2.92
		C651.84,1092.67,650.09,1095.65,645.61,1096.84z"/>
	<path class="st4" d="M514.05,1061.42c-0.33,2.4-0.89,4.48-1.46,6.56c-2.53-0.75-5.34-1.08-7.43-2.48c-0.72-0.48-0.37-4.4,0.73-5.42
		C508.47,1057.68,511.46,1058.39,514.05,1061.42z"/>
	<path class="st5" d="M157.42,678.92c-1.5-2.29-2.58-4.55-3.69-7.21c5.2-0.06,10.41,0.29,15.9,0.88
		C165.88,674.87,161.86,676.9,157.42,678.92z"/>
	<path class="st6" d="M491.41,1096.14c-1.97-1.39-3.56-2.72-5.14-4.05c1.46-0.87,2.95-2.47,4.38-2.43c1.63,0.05,3.22,1.56,4.83,2.44
		C494.25,1093.47,493.02,1094.84,491.41,1096.14z"/>
	<path class="st4" d="M121.84,642.1c1.32,1.75,2.61,3.32,3.05,5.1c0.13,0.52-2.21,2.3-3.4,2.29c-1.1-0.01-3.24-2.01-3.07-2.53
		C119.01,645.16,120.41,643.63,121.84,642.1z"/>
	<path class="st7" d="M571.14,659.63c3.29,8.84-1.79,16.09-4.38,24.98c-28.22-40.4-55.84-79.94-83.46-119.49
		c-0.56,0.35-1.12,0.71-1.68,1.06c1.65,2.89,3.1,5.92,4.98,8.65c15.09,21.84,30.23,43.65,45.41,65.42
		c10.05,14.42,20.09,28.85,30.38,43.1c2.36,3.26,2.42,5.67-0.24,8.5c-4.89,5.19-9.69,10.44-15.04,16.22
		c-7.68-10-14.54-19.12-21.61-28.08c-16.69-21.12-33.4-42.23-50.26-63.21c-8.65-10.76-17.65-21.23-26.95-32.27
		c-0.86-0.76-1.27-1.07-1.68-1.38c-0.15,0.25-0.44,0.69-0.42,0.71c0.54,0.39,1.1,0.73,1.67,1.08c1.99,3.34,3.65,6.94,6.02,9.99
		c18.81,24.23,37.75,48.36,56.65,72.51c10.82,13.83,21.66,27.65,33.14,42.32c-4.38,2.34-8.53,4.56-13.22,7.08
		c-6.77-7.27-13.49-14.46-20.18-21.69c-3.9-4.22-7.74-8.5-11.63-12.74c-19.21-20.9-38.38-41.83-57.67-62.65
		c-3.99-4.3-8.45-8.17-13.16-12.54c-0.7-0.6-1-0.78-1.42-1.2c-0.77-1.19-1.49-2.01-2.22-2.84c-0.35,0.44-0.69,0.89-1.04,1.33
		c1.08,0.65,2.15,1.29,3.3,2.21c0.36,0.46,0.66,0.66,0.96,0.86c5.48,6.58,10.72,13.38,16.48,19.71c9.08,9.96,18.6,19.51,27.76,29.4
		c10.51,11.33,20.77,22.89,31.25,34.25c7.99,8.67,16.14,17.18,24.94,26.53c-8.48,3.43-16.05,6.86-24.59,6.92
		c-1.09,0.01-2.37-1.31-3.27-2.29c-8.72-9.53-17.39-19.1-26.06-28.68c-12.41-13.72-24.67-27.59-37.26-41.15
		c-8.06-8.68-16.58-16.94-24.93-25.36c-0.45-0.45-1.16-0.64-1.75-0.95c-0.38,0.38-0.76,0.77-1.14,1.15
		c29.96,32.38,59.92,64.76,90.85,98.2c-9.54-0.61-17.96,3.99-24.94,0c-4.07,0.98-6.91,2.27-9.75,2.25
		c-10.41-0.09-20.83-0.41-31.21-1.13c-2.14-0.15-4.49-2.03-6.16-3.69c-19.77-19.63-39.37-39.43-59.14-59.06
		c-7.15-7.09-14.62-13.86-21.98-20.73c-0.94-0.88-2.17-1.45-3.73-1.6c24.67,31.53,56.12,56.25,84.24,85.09
		c-9.77-0.85-19.11-1.59-28.43-2.51c-3.37-0.33-6.68-1.39-10.05-1.61c-8.24-0.54-13.61-4.41-18.77-11.17
		c-18.59-24.39-38.11-48.07-57.69-72.36c-0.63-0.32-0.84-0.29-1.05-0.27c0.19,0.18,0.38,0.36,0.57,0.54
		c1.75,3.28,3.07,6.89,5.31,9.8c17.91,23.33,36,46.53,54.37,70.21c-2.18-0.35-4.65-0.54-7.01-1.15
		c-14.91-3.85-29.88-7.52-44.64-11.9c-4.02-1.19-7.92-4.09-10.96-7.13c-16.82-16.82-33.32-33.96-50.03-50.89
		c-2.87-2.91-6.23-5.32-9.84-7.5c16.83,21.21,36.97,39.34,54.85,60.12c-8.08-3.43-16.37-6.41-24.19-10.36
		c-21.86-11.05-42.28-24.49-61.35-39.81c-21.79-17.51-40.93-37.57-57.06-60.59c-18.62-26.57-32.65-55.25-43.12-85.91
		c-6.82-19.96-10.92-40.46-13.69-61.23c-2.75-20.65-0.24-41.09,3.47-61.49c4.34-23.92,12.11-46.71,23.18-68.15
		c8.38-16.24,18.5-31.63,28.32-47.09c15.6-24.55,35.14-45.93,55.19-66.81c8.71-9.07,17.8-17.95,27.66-25.72
		c17.99-14.2,36.2-28.23,55.2-41.01c19.77-13.3,41.64-22.87,64.74-28.88c16.14-4.2,32.67-7.07,49.5-5.83
		c19.42,1.43,38.3,5.45,56.19,13.43c19.18,8.56,36.83,19.35,51.67,34.52c14.18,14.5,21.85,31.43,20.61,51.9
		c-0.84,13.88-6.11,26.12-14.99,36.75c-14.17,16.98-32.49,27.68-53.56,33.21c-12.22,3.21-24.91,4.88-37.49,6.43
		c-10.83,1.34-21.8,2-32.71,2.07c-8.91,0.05-17.82-1.22-27.55-1.97c1.56-3.7,2.88-6.84,4.67-11.07c-8.48,2.78-15.86,7.04-23.31,7.15
		c-7.55,0.11-15.17-3.87-23.74-5.01c4.83,4.73,9.65,9.46,14.97,14.67c-1.07,1.15-2.48,2.68-3.9,4.2
		c-10.8,11.52-22.14,22.59-32.27,34.68c-10.13,12.1-16.88,26.42-21.01,41.62c-4.08,15.01-7.07,30.32-10.45,45.51
		c-0.42,1.91-0.27,3.94-0.76,6.72c-0.49,10.25-0.68,19.69-0.68,29.13c0,2.22,0.63,4.43,0.97,6.65c2.33,21.31,8.28,41.4,19.06,60.11
		c5.33,9.25,10.36,18.57,18.58,25.58c3.81,3.25,7.83,6.32,12.06,8.97c12.66,7.95,25.58,3.32,35.15-7.37
		c6.87-7.67,12.83-16.46,17.73-25.54c10.5-19.48,19.96-39.53,30.05-59.24c3.6-7.03,7.74-13.77,11.76-20.57
		c0.51-0.87,1.8-1.28,2.05-1.45c2.97-5.4,5.16-11.05,8.75-15.58c11.04-13.91,21.97-28.01,34.14-40.9
		c16.34-17.3,35.89-30.34,58.56-38.2c14.32-4.97,28.96-6.06,43.98-3.5c19.95,3.4,37.67,11.86,53.6,23.86
		c12.15,9.15,22.01,20.46,22.19,36.98c0.07,6.53-0.95,13.53-7.45,16.83c-2.98,1.51-7.46,0.84-11.09,0.18
		c-11.69-2.12-21.63-8.31-31.73-14.21c-6.81-3.98-14.06-7.23-21.28-10.45c-5.84-2.61-11.93-3.5-18.35-1.63
		c-4.45,1.3-9.16,1.7-13.64,2.91c-7.34,1.98-12.06,7.26-14.73,13.99c-4.76,12-5.04,24.59-2.86,37.12
		c2.33,13.39,4.54,26.88,8.15,39.95c3.86,13.98,9.3,27.53,14.04,41.26c1.03,2.98,2.04,5.97,2.46,9.16
		c-10.1-14.27-20.2-28.55-30.3-42.82c-0.7,0.44-1.4,0.88-2.09,1.33c2.02,3.8,3.75,7.8,6.12,11.37
		c10.52,15.87,21.78,31.27,31.62,47.55c4.62,7.64,7.18,16.71,9.71,25.41c2.98,10.27,4.91,20.85,6.12,31.86
		c-3.81-5.81-7.52-11.68-11.45-17.41c-11.45-16.69-22.99-33.32-34.95-50.25c-0.67-0.24-0.88-0.21-1.09-0.19
		c0.18,0.2,0.35,0.39,0.53,0.59c3.66,6.54,7.06,13.24,11.03,19.58c6.09,9.71,12.51,19.21,18.91,28.73c5,7.43,9.72,15.12,15.39,22
		c6.04,7.34,5.91,16.04,6.44,24.4c0.58,9.26-0.39,18.64-0.9,27.95c-0.06,1.02-1.53,1.96-2.71,2.55c-0.37-0.39-0.47-0.9-0.56-1.26
		c-1.68-2.73-3.3-5.09-4.88-7.46c-13.1-19.68-26.04-39.47-39.35-59.01c-7.14-10.49-14.91-20.54-22.45-31.14
		c-0.83-1.17-1.62-2.01-2.4-2.84c-0.27,0.28-0.54,0.56-0.81,0.84c0.98,0.87,1.95,1.75,2.95,3.01c1.95,3.61,3.73,6.93,5.8,10.04
		c11.51,17.28,22.99,34.58,34.68,51.74c8.06,11.83,16.44,23.44,24.8,35.42C570.11,659.1,570.63,659.37,571.14,659.63z
		 M340.99,639.22c0.12-0.05,0.23-0.1,0.35-0.15c-0.14-0.07-0.28-0.15-0.68-0.7c-0.41,0.03-0.82,0.06-1.23,0.09
		C339.92,638.6,340.41,638.73,340.99,639.22z M531.3,680.39c-0.19-0.31-0.44-0.55-0.83-1.48c-2.38-3.23-4.76-6.47-7.15-9.7
		c-0.35,0.29-0.71,0.59-1.06,0.88c2.61,3.36,5.21,6.71,8.11,10.49c0.22,0.28,0.5,0.47,1.18,1.23c1.98,2.48,3.96,4.95,5.93,7.43
		c0.67-0.63,1.34-1.25,2.01-1.88C536.83,685.19,534.17,683.03,531.3,680.39z M375.29,630.58c-0.75-0.47-1.5-0.94-2.26-1.41
		c-0.16,0.23-0.33,0.46-0.49,0.69c0.84,0.67,1.67,1.34,2.72,2.71c17.3,20.65,86,85.39,96.31,90.32c-4.42-4.94-7.98-9.42-12.05-13.38
		c-17.02-16.54-34.06-33.06-51.36-49.3C397.56,650.26,386.47,640.84,375.29,630.58z M512.92,655.65c-2.61-3.21-5.22-6.42-7.83-9.63
		c-0.34,0.29-0.67,0.59-1.01,0.88c4.79,6.15,9.58,12.31,14.37,18.46c0.31-0.23,0.62-0.46,0.92-0.69
		C517.4,661.86,515.42,659.04,512.92,655.65z M405.69,623.19c0.62,0.43,1.25,0.86,1.87,1.28c0.29-0.34,0.59-0.69,0.88-1.03
		c-1.47-1.16-2.94-2.32-5.65-4.46C404.12,621.06,404.64,621.87,405.69,623.19z M479.99,564.03c0.37-0.18,0.74-0.37,1.11-0.55
		c-0.34-0.35-0.68-0.71-1.02-1.06C479.89,562.79,479.71,563.17,479.99,564.03z"/>
	<path class="st8" d="M610.29,982.06c2.75,4.37,5.5,8.75,8.58,13.65c-9.55-0.2-11.74-8.44-16.95-13.47
		c-0.31-0.16-0.29-0.15-0.38-0.42c-0.4-0.45-0.71-0.64-1.05-1.21c-6.3-8.97-12.58-17.55-19.02-26.45c-1.7-2.63-3.24-4.94-4.78-7.25
		c-0.57,0.44-1.15,0.87-1.72,1.31c1.96,2.32,3.93,4.64,5.96,7.34c2.31,3.99,4.56,7.6,6.69,11.3c-0.11,0.09-0.33,0.26-0.33,0.26
		c-4.56-4.7-9.36-9.2-13.63-14.15c-8.57-9.92-16.83-20.1-25.26-30.14c-0.98-1.16-2.26-2.08-3.4-3.1c-0.46,0.39-0.92,0.78-1.38,1.17
		c17.73,22.71,35.45,45.42,53.61,68.69c-5.31-1.04-10.07-1.52-12.52-6.7c-0.67-1.42-1.94-2.55-3.36-4.22
		c-0.73-0.59-1.03-0.77-1.34-1.22c-0.01-0.26-0.08-0.78-0.15-1.14c-11.41-16.03-22.74-31.7-34.06-47.37c-0.55,0.4-1.1,0.8-1.66,1.2
		c3.6,4.99,7.15,10.03,10.82,14.97c7.9,10.6,15.87,21.15,23.93,31.95c0.43,0.4,0.74,0.57,1.11,1c0.38,0.46,0.68,0.64,0.99,0.83
		c0.58,1.8,1.16,3.6,1.77,5.47c-4.78,0.92-8.08-1.47-11.19-5.67c-0.89-0.39-1.32-0.36-1.76-0.34c0.45,0.21,0.9,0.42,1.36,0.63
		c0,0.7,0,1.4,0,3.66c-3.75-2.56-7.27-4.05-9.5-6.64c-7.91-9.2-15.12-19.01-23.09-28.15c-6.41-7.35-13.53-14.09-20.78-21.47
		c-0.85-0.81-1.26-1.25-1.74-2.04c-1.01-1.55-1.95-2.74-2.9-3.93c-0.36,0.37-0.72,0.73-1.08,1.1c1.35,1.06,2.71,2.11,4.03,3.5
		c0.29,0.88,0.62,1.43,0.94,1.98c6.47,8.31,12.77,16.76,19.46,24.89c5.91,7.17,12.3,13.95,18.4,20.96c0.98,1.13,1.57,2.61,2.66,4.5
		c-5.21-1.37-10.28-1.58-13.96-3.96c-4.28-2.77-7.45-7.34-10.89-11.31c-4.69-5.41-9.18-11-14.23-17c-1.74-2.12-3.01-3.75-4.27-5.38
		c-0.4,0.38-0.81,0.77-1.21,1.15c1.74,1.5,3.47,3.01,5.21,4.51c2.08,3.62,3.84,7.47,6.31,10.79c3.7,4.96,7.9,9.54,12.18,14.63
		c-6.72-0.51-11.69-3.12-16.01-8.29c-0.82-0.6-1.18-0.74-1.48-0.88c0.07,0,0.03,0.12,0.1-0.27c-3.58-3.77-7.23-7.16-10.84-10.6
		c0.03-0.06-0.01,0.07,0.07-0.3c-0.34-0.49-0.76-0.62-1.14-0.74c0.04,0-0.05,0.02,0.15-0.27c-0.24-0.79-0.68-1.29-1.41-1.9
		c-0.5-0.08-0.71-0.05-0.87,0c0.04,0.02-0.01,0.1-0.01,0.1c-3.35-4.73-6.71-9.46-9.97-14.07c6.17-11.46,12.94-23.12,18.81-35.21
		c6.27-12.92,10.9-26.37,12.07-40.99c1.15-14.43,1.25-28.6-2.11-42.78c-4.82-20.39-19.23-30.75-37.74-36.99
		c-5.39-1.82-10.86-3.41-16.3-6.09c4.97-0.53,9.93-1.24,14.91-1.57c17.96-1.19,35.5-4.58,52.55-10.27
		c21.06-7.03,38.79-18.72,50.42-38.19c3.48-5.83,6.49-12.02,9.04-18.32c1.83-4.52,4.66-5.18,8.86-4.64c6.72,0.87,13.48,1.78,20.24,2
		c13.95,0.46,24.46-5.59,31.63-17.62c7.5-12.58,13.56-25.83,16.28-40.21c3.52-18.57,4.13-37.3,2.56-56.26
		c-1.31-15.76-2.79-31.38-6.72-46.73c-3.59-14.02-7.75-27.9-17.62-38.86c-7.85-8.73-17.89-13.02-30.15-12.73
		c-15.52,0.38-29.16,5.2-41.51,14.3c-0.98,0.72-2.14,1.2-3.88,2.15c-3.67-11.22-7.47-22.04-10.72-33.01
		c-4.64-15.65-8.65-31.48-8.97-47.94c-0.02-1.13,1.77-3.35,2.5-3.26c3.87,0.45,8.03,0.76,11.43,2.45
		c8.66,4.33,16.92,9.43,25.41,14.1c10.46,5.76,21.42,10.24,33.46,11.13c16.38,1.2,31.05-3.52,39.62-22.3
		c4.38-9.6,7.89-19.37,8.69-29.73c0.84-10.79-1.31-21.47-5.4-31.53c-9.98-24.53-29.02-40.48-51.17-53.39
		c-1.63-0.95-3.33-1.8-4.73-3.7c12.81,0.65,25.63,1.36,38.44,1.94c6.47,0.29,13-0.11,19.42,0.58c23.27,2.5,46.26,6.37,65.97,20.26
		c13.95,9.83,21.99,23.44,25.78,40.29c4.28,19.04,4.88,38.23,3.69,57.37c-1.25,20.14-4.27,40.2-7.1,60.21
		c-2.51,17.72-5.52,35.38-8.85,52.96c-4.09,21.63-8.71,43.16-13.17,64.71c-5.58,26.98-11.49,53.9-16.78,80.94
		c-4.02,20.54-7.87,41.15-10.74,61.88c-2.68,19.32-4.74,38.8-5.71,58.27c-1.4,28.38-1.67,56.82-2.18,85.23
		c-0.07,4.05-1.41,6.32-4.58,8.86c-9.08,7.26-17.66,15.15-26.42,22.8c-2.11,1.84-4.2,3.72-6.96,6.16c2.39,0.2,3.89,0.33,5.43,0.46
		c0.26,0.22,0.67,0.39,0.78,0.67c5.79,14.31,11.23,28.78,17.48,42.89c2.97,6.68-3.05,6.25-5.65,9.98
		c-3.21-6.19-5.98-11.51-8.74-16.84c-6.27-12.1-10.74-25.7-19.27-35.9c-9.3-11.11-13.97-24.35-21.85-35.91
		c-0.14-0.2-0.62-0.18-1.88-0.49c2.56,5.31,4.76,10.1,7.15,14.81c8.53,16.78,17,33.6,25.77,50.26c2.89,5.49,6.61,10.54,9.95,15.78
		c0.19,0.3,0.47,0.55,0.68,0.84c5.95,8.25,5.56,9.7-4.34,14.16c-2.97-7-5.79-14.06-8.94-20.98c-4.97-10.94-10.16-21.79-15.59-33.26
		c-1.11-2.62-1.89-4.66-2.67-6.7c-0.52,0.24-1.04,0.48-1.56,0.72c1.23,2.13,2.46,4.25,3.69,6.38c3.35,8.49,6.55,17.04,10.08,25.45
		c4.14,9.87,8.57,19.62,12.83,29.33c-6.41,4.93-6.9,4.89-11.48-1.09c-0.44-0.86-0.51-1.3-0.57-2.15c-1.88-4.41-3.55-8.54-5.7-12.41
		c-4.98-8.97-10.18-17.81-15.41-27.06c-1.2-2.47-2.29-4.59-3.38-6.71c-0.49,0.3-0.99,0.59-1.48,0.89c1.42,2.26,2.83,4.51,4.33,7.15
		c2.62,5.32,5.09,10.29,7.69,15.19c4.19,7.87,8.47,15.69,12.77,23.83c0.42,0.77,0.77,1.24,1.12,1.71c1.95,6.41,1.9,6.49-5.24,7.9
		c-20.19-39.79-40.42-79.67-60.65-119.54c-0.77,0.39-1.54,0.78-2.31,1.17c20.08,39.61,40.16,79.22,60.24,118.84
		c-8.06,3.2-15.82,0.64-20.09-6.11c-12.48-19.68-25-39.34-37.71-58.87c-3.3-5.07-7.34-9.65-11.62-14.07
		c11.49,28.99,33.43,51.41,48.92,77.85c-6.44,0.57-7.87-0.12-11.16-5.06c-2.37-3.57-4.86-7.07-7.64-11.11
		c-3.4-5.77-6.47-11.04-9.53-16.31c-0.61,0.38-1.21,0.77-1.82,1.15C603.6,971.78,606.94,976.92,610.29,982.06z M583.37,938.05
		c-0.53-0.67-1.05-1.35-1.58-2.02c-0.28,0.88-0.15,1.42,0.16,1.81c0.32,0.39,0.82,0.64,1.31,1.63c0.66,0.89,1.33,1.77,2.17,3.4
		c3.18,4.81,6.36,9.63,9.64,15.15c0.44,0.45,0.88,0.9,1.33,1.34c0.19-0.24,0.58-0.64,0.53-0.69c-0.48-0.62-1.03-1.2-1.6-2.55
		c-3.23-4.77-6.46-9.55-9.77-15.04C584.8,940.29,584.04,939.51,583.37,938.05z M616.83,961.64c-1.49-2.51-2.98-5.02-4.47-7.53
		c-0.47,0.31-0.94,0.61-1.41,0.92c1.89,2.57,3.78,5.13,5.73,8.48c2.11,3.38,4.22,6.75,6.36,10.91c2.87,5,5.75,9.99,8.62,14.99
		c0.56-0.33,1.12-0.66,1.68-1c-3.32-5.04-6.64-10.08-10.05-15.88C621.19,969.14,619.09,965.76,616.83,961.64z M560.11,964.57
		c0.93,1.11,1.86,2.22,2.8,3.33c0.48-0.36,0.96-0.71,1.45-1.07c-6.68-10.07-13.36-20.13-20.04-30.2c-0.53,0.34-1.06,0.67-1.58,1.01
		C548.39,946.39,554.05,955.14,560.11,964.57z M636.84,997.59c-0.67-2.25-1.34-4.5-2.01-6.75c-0.48,0.18-0.97,0.37-1.45,0.55
		C634.36,993.32,635.33,995.25,636.84,997.59z M598.67,960.55c0,1.31,0,2.61,0,3.92c0.59-0.04,1.18-0.09,1.78-0.13
		C600.06,963.26,599.66,962.18,598.67,960.55z M632.24,939.86c0.09,0.18,0.18,0.36,0.27,0.54
		C632.51,940.15,632.5,939.89,632.24,939.86z"/>
	<path class="st9" d="M329,809.93c2,5.46,4,10.92,6.01,16.39c0.81,2.22,1.64,4.43,1.7,6.92c-1.97-3.01-3.93-6.01-6.23-9.5
		c-0.74-1.51-1.15-2.53-1.56-3.56c-0.33,0.2-0.66,0.41-0.99,0.61c0.72,1.07,1.44,2.14,2.16,3.21c0.65,8.91,7.42,14.92,10.84,22.53
		c3.31,7.38,3.77,7.65-2.61,12.28c-3.94-6.12-7.86-12.22-12.15-18.91c-3.1-4.61-5.83-8.63-8.56-12.64
		c-0.71,0.51-1.42,1.03-2.13,1.54c3.33,3.92,6.67,7.85,10,11.77c2.57,5.7,5.05,11.44,7.76,17.08c1.84,3.84,0.93,6.47-3.87,8.67
		c-8.24-13.7-16.55-27.52-24.87-41.36c-0.48,0.44-1.34,1.23-1.96,1.8c7.66,14.01,15.26,27.92,23.49,42.98
		c-3.75,1.19-6.36,2.02-9.21,2.92c-1.23,0.86-2.84,2.38-4.74,3.05c-0.52,0.18-2.24-2.03-2.89-3.39
		c-6.41-13.44-12.57-26.99-19.09-40.37c-3.81-7.82-8.16-15.38-12.64-23.41c-0.72-0.86-1.08-1.37-1.39-2.16
		c-0.08-0.58-0.2-0.87-0.32-1.16c-0.19,0.14-0.39,0.29-0.58,0.43c0.27,0.35,0.55,0.7,0.86,1.36c0.38,0.82,0.73,1.33,1.07,1.83
		c3.6,8.58,7.31,17.11,10.72,25.77c1.15,2.92,1.16,6.28,2.3,9.21c1.47,3.79,3.44,7.4,5.4,10.98c4.03,7.36,8.19,14.65,12.3,21.97
		c-0.26,0.65-0.52,1.31-0.78,1.96c-4.82,0-9.64,0.03-14.46-0.03c-0.87-0.01-1.81-0.71-2.6-0.54c-5.12,1.1-7.53-1.88-9.35-5.93
		c-0.57-1.27-1.33-2.46-2.97-3.24c1.08,2.42,2.16,4.85,3.44,7.72c-4.59,0.49-5.91-2.87-7.4-5.62c-4.69-8.69-9.04-17.57-13.85-26.2
		c-4.17-7.48-8.79-14.71-13.58-22.46c-1.09-2-1.8-3.58-2.67-5.39c-0.61-0.19-1.06-0.15-1.5-0.12c0.37,0.34,0.73,0.68,1.14,1.39
		c0.84,1.79,1.64,3.21,2.44,4.63c0.97,2.3,1.82,4.66,2.94,6.88c7.59,14.94,15.24,29.85,22.82,44.68
		c-5.28-0.51-11.06-0.57-14.02-7.79c-2.5-6.09-6.28-11.64-9.95-18.26c-0.5,2.12-0.73,3.11-1.17,5.02
		c-3.13-5.38-5.87-10.08-8.62-14.78c-0.41,0.21-0.82,0.42-1.24,0.63c4.8,9.43,9.61,18.86,14.41,28.29c-0.32,0.4-0.65,0.79-0.97,1.19
		c-2.31-1.89-4.62-3.77-7.07-5.78c-0.15,0.24-0.64,1.03-1.33,2.15c-20.64-11.12-39.89-24.15-57.99-38.94
		c-13.34-10.9-26.94-21.49-40.25-32.43c-10.98-9.03-20.82-19.25-23.98-33.63c-1.5-6.81-1.8-14.3-0.61-21.12
		c0.65-3.71,5.07-7.36,8.62-9.86c15.83-11.16,31.96-21.9,48.01-32.76c0.69-0.47,1.57-0.66,3.25-1.34
		c-1.15,11.52,3.64,20.64,8.86,29.72c6.28,10.91,14.3,20.15,24.27,27.8c9.69,7.43,19.23,15.01,31.02,19.01
		c9.66,3.28,18.63,1.2,25.41-5.69c7.46-7.6,13.53-16.56,20.61-25.44c39.18,16.27,81.55,24.64,125.5,29.44
		c-27.99,11.66-42.71,34.38-53.65,61.46c-6.45-14.55-12.27-27.68-18.09-40.8c-0.61,0.26-1.22,0.52-1.83,0.78
		c2.86,7.25,5.61,14.55,8.63,21.74c2.5,5.96,5.5,11.71,7.88,17.71c0.67,1.69,0.53,4.25-0.29,5.88c-1.8,3.57-4.27,6.8-6.74,10.58
		c-6.04-11.95-11.56-22.97-17.2-33.93c-0.69-1.34-2.05-2.34-3.43-3.83c-0.49-0.98-0.64-1.63-0.8-2.27c-0.26,0.1-0.52,0.21-0.78,0.31
		C328.25,808.36,328.63,809.15,329,809.93z M273.71,862.76c0.75,1.43,1.5,2.85,2.24,4.28c0.49-0.32,0.98-0.64,1.47-0.97
		c-1.17-1.41-2.34-2.82-3.6-5.01c-2.38-3.8-4.76-7.6-7.28-12.09c-0.56-0.99-1.13-1.97-1.69-2.96c-0.3,0.21-0.6,0.42-0.9,0.64
		c0.71,1.16,1.43,2.32,2.31,4.21C268.75,854.58,271.23,858.29,273.71,862.76z"/>
	<path class="st9" d="M759.53,909.51c2.92,5.84,1.09,9.99-3.71,14.21c-6.02,5.3-11.21,11.55-17.68,18.36
		c-5.74-12.71-10.86-24.03-16.11-35.65c8.98-5.21,17.89-10.39,27.09-15.73c3.47,6.61,6.61,12.58,10.09,18.68
		C759.54,909.53,759.53,909.51,759.53,909.51z"/>
	<path class="st10" d="M799.26,874.59c-6.16,7.48-12.09,14.65-18.76,22.72c-3.32-7.09-6.17-13.16-9.32-19.88
		c14.68-9.02,29.23-17.97,43.78-26.91c0.37,0.33,0.73,0.67,1.1,1C810.55,859.11,805.02,866.7,799.26,874.59z"/>
	<path class="st10" d="M759.55,909.54c-1.97-5.32-3.95-10.66-5.94-15.99c-0.55-1.48-1.17-2.93-1.85-4.62
		c5.61-3.34,10.96-6.52,16.77-9.98c3.11,6.17,6.18,12.01,8.96,17.99c0.49,1.05,0.29,3.08-0.44,3.94c-4.27,5.04-8.8,9.86-13.27,14.79
		c-1.39-2.3-2.47-4.1-3.91-6.03C759.53,909.51,759.54,909.53,759.55,909.54z"/>
	<path class="st10" d="M714.14,949.53c0.49,1.41,0.83,2.44,1.23,3.44c2.6,6.52,2.39,7.03-5.16,10.89
		c-5.86-14-11.7-27.95-17.76-42.43c2.93-1.01,6.35-2.18,9.51-3.27C706.11,928.85,710.06,938.99,714.14,949.53z"/>
	<path class="st6" d="M368.7,455.51c-2.64-4.82-4.62-10.16-7.51-14.98c-12.44-20.78-25.15-41.4-37.77-62.06
		c-0.74-1.2-1.59-2.33-2.73-3.66c-1.52-9.72,2.24-17.92,7.07-25.97c0.18,0.46,0.01,0.98-0.27,1.43c-9.18,14.84-3.2,26.97,5.53,39.83
		c13.21,19.46,24.96,39.92,37.6,60.41c1.72-3.51,3.46-7.08,5.55-10.8c-0.65,4.58-0.98,9.59-6.17,12.22
		C369.29,452.3,369.28,454.09,368.7,455.51z"/>
	<path class="st11" d="M710.41,914.53c4.63,10.3,8.53,20.57,13.48,30.29c2.71,5.32,1.67,8.28-3.82,11.33
		c-1.7-4.87-3.22-9.69-5.05-14.39c-2.34-6.01-5.13-11.85-7.35-17.91C706.39,920.35,706.34,916.7,710.41,914.53z"/>
	<path class="st11" d="M695.53,975.89c-2.21-4.12-4.14-8.31-5.93-12.56c-4.77-11.35-9.48-22.73-14.38-34.49
		c1.31-0.69,2.65-1.4,3.98-2.09c0.66,0.6,1.21,0.87,1.39,1.29c5.88,13.86,11.61,27.78,17.64,41.58
		C699.67,972.91,697.94,974.23,695.53,975.89z"/>
	<path class="st12" d="M316.25,401.67c5.21,9.7,10.64,19.29,15.58,29.12c7.85,15.6,15.37,31.37,23.07,47.46
		c-0.35,0.43-0.61,0.62-0.89,1.19c-8.04-15.42-15.97-31.04-23.84-46.69c-5.06-10.07-10.04-20.18-14.77-30.72
		C315.87,401.61,316.06,401.64,316.25,401.67z"/>
	<path class="st13" d="M378.91,434.26c-2.22-4.76-4.02-9.78-6.74-14.24c-11.62-18.99-23.54-37.81-35.28-56.73
		c-0.81-1.3-1.07-2.95-0.56-4.94c14.64,23.7,29.28,47.4,44.34,71.19c0.54,0.4,0.55,0.7,0.11,1.42c-0.48,1.03-0.61,1.66-0.74,2.29
		c0,0-0.04,0.5-0.34,0.75C379.4,434.26,378.91,434.26,378.91,434.26z"/>
	<path class="st11" d="M683,926.25c1.35,0.01,3.17,0.02,3.57,0.78c6.36,12.03,12.53,24.17,18.77,36.27c1.58,3.06,1.56,5.46-2.6,6.62
		c-3.75-8.62-7.34-17.19-11.19-25.64C688.83,938.3,685.74,932.48,683,926.25z"/>
	<path class="st11" d="M498.83,953.91c0.58,2.18,1.16,4.37,2,7.54c-6.96-1.95-13.53-3.79-20.82-5.83c3.24-4.83,5.99-8.92,9.13-13.6
		c3.19,4.25,6.07,8.09,9.33,11.92C498.84,953.93,498.83,953.91,498.83,953.91z"/>
	<path class="st5" d="M495.55,945.7c-1.32-3.02-6.63-5.09-2.17-9.87c3.81,3.99,7.48,7.83,11.52,11.73c0.37,0.06,0.42-0.02,0.35,0.27
		c0.23,0.55,0.54,0.82,0.98,1.35c0.47,0.36,0.8,0.44,1.14,0.53c0,0,0.09-0.01,0.01,0.33c0.31,0.48,0.71,0.62,1.11,0.76
		c0,0,0.04-0.13-0.05,0.31c3.55,3.83,7.2,7.22,10.84,10.61c0,0,0.03-0.13-0.3,0.21c0.25,0.89,0.84,1.45,1.42,2.02
		c0.48,0.73,0.96,1.46,1.8,2.73c-5.33,0.94-5.87-4.19-8.93-6.19c-0.35-0.12-0.28-0.09-0.39-0.41c-0.8-0.78-1.5-1.24-2.5-1.89
		c-2.63-2.85-5.25-5.3-7.19-8.21C501.26,947.07,499.11,945.33,495.55,945.7z"/>
	<path class="st11" d="M719.54,919.31c1.8,3.76,3.39,7.65,5.46,11.26c2.63,4.6,5.65,8.97,8.71,13.79c-1.52,1.45-2.87,2.74-4.91,4.69
		c-4.06-10.1-7.82-19.44-11.53-29.26c0.05-0.48,0.19-0.61,0.53-0.54c0.79,0.05,1.24,0.04,1.7,0.03
		C719.52,919.28,719.54,919.31,719.54,919.31z"/>
	<path class="st10" d="M495.6,946.12c3.51-0.8,5.67,0.95,7.59,3.84c1.93,2.91,4.56,5.37,7.25,8.57c1.1,0.98,1.82,1.42,2.54,1.85
		c0,0-0.07-0.03-0.06-0.06c0.08,1.32,0.15,2.68,0.23,4.19c-4.93,0.45-8.55-1.3-10.77-5.87c-0.77-1.58-1.89-2.99-3.2-4.61
		c-0.35-0.13-0.35-0.1-0.34-0.1C497.78,951.47,496.71,949,495.6,946.12z"/>
	<path class="st11" d="M717.25,919.37c-1.37-2.32-2.83-4.65-3.78-7.17c-0.12-0.33,2.38-1.64,3.66-2.5c1.5,2.27,3.12,4.47,4.45,6.83
		c0.68,1.21,0.83,2.71,1.2,4.5c-0.03,0.41-0.02,0.41-0.02,0.41c-0.86-0.68-1.71-1.35-2.9-2.08c-0.33-0.05-0.35-0.08-0.41-0.45
		c-0.78-1.47-1.49-2.56-2.21-3.66c-0.26,0.16-0.52,0.32-0.78,0.47c0.33,1.15,0.66,2.29,1,3.44
		C717.46,919.17,717.32,919.3,717.25,919.37z"/>
	<path class="st8" d="M601.6,982.07c-0.15,0.99-0.29,1.99-0.43,3c-0.42,0.23-0.84,0.46-1.25,0.7c-4.2-5.96-8.39-11.92-12.61-18.26
		c-0.02-0.38,0.2-0.55,0.63-0.48c4.11,4.72,7.78,9.37,11.64,14.3c0.8,0.45,1.43,0.61,2.05,0.77
		C601.63,982.09,601.61,982.08,601.6,982.07z"/>
	<path class="st13" d="M431.59,298.11c3.98,4.06,7.85,8.33,11.63,12.68c0.3,0.35,0,1.21-0.33,2.05c-4.23-4.26-8.15-8.72-12.19-13.53
		C430.92,298.81,431.21,298.61,431.59,298.11z"/>
	<path class="st5" d="M94.24,576.2c-0.65,0.41-1.79,0.52-1.82,0.39c-0.89-4.1-1.67-8.23-2.47-12.35c0.65-0.16,1.3-0.32,1.95-0.48
		C92.69,567.76,93.48,571.78,94.24,576.2z"/>
	<path class="st10" d="M278.12,447.77c-0.35-1.71-0.99-3.93-0.99-6.14c0-9.44,0.18-18.88,0.59-28.65
		C278.05,424.19,278.09,435.73,278.12,447.77z"/>
	<path class="st14" d="M610.52,982.04c-3.58-5.12-6.92-10.27-10.26-15.41c0.61-0.38,1.21-0.77,1.82-1.15
		c3.06,5.27,6.13,10.54,9.17,16.2C611.23,982.08,610.76,982.02,610.52,982.04z"/>
	<path class="st6" d="M378.66,434.53c0.26-0.26,0.74-0.27,0.99-0.28c-0.63,1.74-1.5,3.49-2.75,5.28
		C377.14,437.98,377.77,436.38,378.66,434.53z"/>
	<path class="st6" d="M329.42,345.75c0.39,1.06,0.55,2.38,0.62,3.71c0,0.06-0.72,0.16-1.1-0.15
		C329.02,347.94,329.09,346.98,329.42,345.75z"/>
	<path class="st14" d="M520.43,963.59c-0.62-0.21-1.2-0.78-1.52-1.67c0.63-0.19,0.99-0.05,1.5,0.36
		C520.53,962.79,520.49,963.01,520.43,963.59z"/>
	<path class="st6" d="M380.24,433.02c-0.07-0.4,0.06-1.03,0.47-1.83C380.81,431.61,380.63,432.2,380.24,433.02z"/>
	<path class="st11" d="M722.76,921.45c0.17,0.17,0.34,0.34,0.51,0.51c-0.12-0.05-0.25-0.1-0.43-0.34
		C722.77,921.44,722.76,921.44,722.76,921.45z"/>
	<path class="st6" d="M320.03,374.78c0.11,0.23-0.04,0.55-0.44,0.98C319.48,375.54,319.62,375.2,320.03,374.78z"/>
	<path class="st15" d="M375.6,631.18c10.87,9.66,21.96,19.08,32.56,29.03c17.3,16.24,34.34,32.76,51.36,49.3
		c4.07,3.96,7.63,8.44,12.05,13.38c-10.3-4.93-79.01-69.67-96.27-90.84C375.33,631.53,375.6,631.18,375.6,631.18z"/>
	<path class="st14" d="M504.5,560.69c7.49,10.25,15.26,20.31,22.4,30.8c13.31,19.54,26.25,39.33,39.35,59.01
		c1.58,2.38,3.2,4.74,4.57,7.47c-0.64,0.35-1.06,0.34-1.47,0.32c-8.24-11.71-16.62-23.31-24.68-35.14
		c-11.69-17.16-23.17-34.46-34.68-51.74c-2.08-3.12-3.86-6.43-5.72-10.11C504.34,560.83,504.5,560.69,504.5,560.69z"/>
	<path class="st4" d="M513.18,655.94c2.24,3.11,4.21,5.93,6.18,8.75c-0.31,0.23-0.62,0.46-0.92,0.69
		c-4.79-6.15-9.58-12.31-14.37-18.46c0.34-0.29,0.67-0.59,1.01-0.88C507.7,649.24,510.31,652.45,513.18,655.94z"/>
	<path class="st4" d="M530.08,680.16c-2.61-3.36-5.21-6.71-7.82-10.07c0.35-0.29,0.71-0.59,1.06-0.88
		c2.38,3.23,4.76,6.47,7.07,10.21C530.31,679.91,530.08,680.16,530.08,680.16z"/>
	<path class="st4" d="M531.51,680.86c2.66,2.16,5.32,4.33,7.98,6.49c-0.67,0.63-1.34,1.25-2.01,1.88c-1.98-2.48-3.96-4.95-6.03-7.83
		C531.36,681.01,531.51,680.86,531.51,680.86z"/>
	<path class="st0" d="M405.43,622.93c-0.78-1.07-1.3-1.87-2.64-3.95c2.71,2.14,4.18,3.3,5.65,4.46c-0.29,0.34-0.59,0.69-0.88,1.03
		C406.93,624.05,406.31,623.62,405.43,622.93z"/>
	<path class="st0" d="M426.33,606.42c-1.08-0.65-2.15-1.3-3.23-1.94c0.35-0.44,0.69-0.89,1.04-1.33c0.73,0.83,1.45,1.65,2.2,2.86
		C426.36,606.38,426.33,606.42,426.33,606.42z"/>
	<path class="st14" d="M504.25,560.9c-1.06-0.8-2.03-1.68-3.01-2.55c0.27-0.28,0.54-0.56,0.81-0.84c0.79,0.83,1.57,1.66,2.4,2.84
		C504.5,560.69,504.34,560.83,504.25,560.9z"/>
	<path class="st15" d="M375.19,631.7c-0.98-0.5-1.81-1.17-2.65-1.84c0.16-0.23,0.33-0.46,0.49-0.69c0.75,0.47,1.5,0.94,2.41,1.71
		C375.6,631.18,375.33,631.53,375.19,631.7z"/>
	<path class="st0" d="M447.89,584.84c-0.62-0.28-1.19-0.62-1.73-1.01c-0.02-0.01,0.28-0.46,0.42-0.71c0.41,0.31,0.82,0.63,1.36,1.22
		C448.08,584.63,447.95,584.77,447.89,584.84z"/>
	<path class="st0" d="M479.76,563.79c-0.05-0.62,0.14-0.99,0.32-1.37c0.34,0.35,0.68,0.71,1.02,1.06
		C480.74,563.66,480.36,563.84,479.76,563.79z"/>
	<path class="st0" d="M340.78,638.62c-0.37,0.11-0.86-0.02-1.36-0.15C339.84,638.44,340.25,638.41,340.78,638.62z"/>
	<path class="st0" d="M569.48,658.57c0.3-0.26,0.71-0.25,1.44-0.24c0.31-0.01,0.42,0.5,0.46,0.76c0.03,0.26-0.1,0.4-0.16,0.47
		C570.63,659.37,570.11,659.1,569.48,658.57z"/>
	<path class="st0" d="M426.38,606.36c0.39,0.04,0.7,0.22,1.03,0.77c0.1,0.25,0.03,0.33-0.01,0.37c-0.34-0.16-0.64-0.35-1-0.82
		C426.33,606.42,426.36,606.38,426.38,606.36z"/>
	<path class="st0" d="M311.59,638.96c-0.25-0.12-0.44-0.3-0.63-0.48c0.21-0.03,0.42-0.05,0.72,0.11
		C311.78,638.77,311.66,638.89,311.59,638.96z"/>
	<path class="st0" d="M340.95,639.04c0.1-0.11,0.24-0.04,0.39,0.04C341.22,639.13,341.1,639.18,340.95,639.04z"/>
	<path class="st0" d="M523.61,533.93c-0.25-0.12-0.43-0.32-0.61-0.51c0.21-0.03,0.42-0.06,0.73,0.1
		C523.84,533.7,523.69,533.86,523.61,533.93z"/>
	<path class="st4" d="M531.28,681.08c-0.42-0.03-0.69-0.23-1.06-0.72c-0.14-0.21,0.08-0.46,0.2-0.58c0.44,0.05,0.69,0.29,0.98,0.83
		C531.51,680.86,531.36,681.01,531.28,681.08z"/>
	<path class="st14" d="M578.76,976.81c-7.94-10.57-15.91-21.11-23.81-31.71c-3.68-4.94-7.22-9.97-10.82-14.97
		c0.55-0.4,1.1-0.8,1.66-1.2c11.33,15.67,22.66,31.34,33.77,47.39C579.15,976.74,578.96,976.77,578.76,976.81z"/>
	<path class="st14" d="M657.68,988.79c-4.24-7.84-8.52-15.66-12.71-23.53c-2.61-4.9-5.08-9.87-7.51-15.33
		c0.1-0.52,0.46-0.82,0.46-0.82c5.11,8.89,10.32,17.73,15.3,26.7c2.15,3.87,3.82,8,5.39,12.43
		C658.08,988.7,657.88,988.74,657.68,988.79z"/>
	<path class="st14" d="M559.91,964.23c-5.86-9.09-11.52-17.84-17.18-26.59c0.53-0.34,1.06-0.67,1.58-1.01
		c6.68,10.07,13.36,20.13,20.04,30.2c-0.48,0.36-0.96,0.71-1.45,1.07C561.97,966.79,561.04,965.68,559.91,964.23z"/>
	<path class="st14" d="M599.4,981.04c-3.67-4.65-7.35-9.3-11.35-14.11c-2.57-3.77-4.82-7.38-6.93-11.54
		c0.13-0.55,0.51-0.91,0.51-0.91c6.28,8.58,12.55,17.16,18.58,26.12C599.77,980.99,599.59,981.01,599.4,981.04z"/>
	<path class="st14" d="M585.65,941.79c3.23,4.77,6.46,9.55,9.61,14.82c-0.08,0.49-0.28,0.7-0.28,0.7
		c-3.18-4.81-6.36-9.63-9.53-14.89C585.45,941.96,585.65,941.79,585.65,941.79z"/>
	<path class="st14" d="M519.34,961.33c-3.71-3-7.35-6.39-10.93-10.16C512.11,954.17,515.76,957.55,519.34,961.33z"/>
	<path class="st14" d="M623.38,973.29c3.32,5.04,6.64,10.08,9.97,15.12c-0.56,0.33-1.12,0.66-1.68,1c-2.87-5-5.75-9.99-8.55-15.47
		C623.19,973.46,623.38,973.29,623.38,973.29z"/>
	<path class="st14" d="M581.06,955.01c-2.16-2.15-4.12-4.47-6.09-6.79c0.57-0.44,1.15-0.87,1.72-1.31c1.54,2.31,3.08,4.63,4.78,7.25
		C581.63,954.48,581.26,954.84,581.06,955.01z"/>
	<path class="st14" d="M623.09,973.55c-2.2-3.29-4.31-6.66-6.36-10.52c0.06-0.48,0.26-0.66,0.26-0.66c2.1,3.38,4.2,6.77,6.34,10.53
		C623.38,973.29,623.19,973.46,623.09,973.55z"/>
	<path class="st14" d="M616.7,962.64c-1.98-2.47-3.87-5.04-5.76-7.61c0.47-0.31,0.94-0.61,1.41-0.92c1.49,2.51,2.98,5.02,4.55,7.89
		C616.99,962.37,616.8,962.55,616.7,962.64z"/>
	<path class="st14" d="M637.38,949.54c-1.6-2.11-3.01-4.37-4.43-6.63c0.49-0.3,0.99-0.59,1.48-0.89c1.09,2.12,2.18,4.24,3.38,6.71
		C637.92,949.1,637.56,949.4,637.38,949.54z"/>
	<path class="st0" d="M648.1,936.62c-1.28-2.08-2.52-4.21-3.75-6.33c0.52-0.24,1.04-0.48,1.56-0.72c0.78,2.04,1.56,4.08,2.34,6.52
		C648.26,936.48,648.15,936.57,648.1,936.62z"/>
	<path class="st0" d="M636.58,997.39c-1.24-2.13-2.22-4.06-3.19-5.99c0.48-0.18,0.97-0.37,1.45-0.55
		C635.5,993.09,636.17,995.34,636.58,997.39z"/>
	<path class="st0" d="M518.27,945.31c-1.76-1.48-3.5-2.98-5.23-4.49c0.4-0.38,0.81-0.77,1.21-1.15c1.27,1.63,2.53,3.26,3.94,5.23
		C518.34,945.23,518.29,945.29,518.27,945.31z"/>
	<path class="st0" d="M516.16,924.68c-1.35-1.06-2.71-2.11-4.06-3.17c0.36-0.37,0.72-0.73,1.08-1.1c0.95,1.19,1.89,2.39,2.9,3.93
		C516.15,924.69,516.16,924.68,516.16,924.68z"/>
	<path class="st14" d="M598.97,960.83c0.69,1.36,1.09,2.43,1.48,3.51c-0.59,0.04-1.18,0.09-1.78,0.13
		C598.67,963.16,598.67,961.85,598.97,960.83z"/>
	<path class="st14" d="M583.27,938.72c0.76,0.79,1.53,1.57,2.34,2.72c0.04,0.36-0.16,0.52-0.26,0.6c-0.76-0.8-1.42-1.69-2.1-2.93
		C583.24,938.75,583.27,938.72,583.27,938.72z"/>
	<path class="st14" d="M583.22,938.77c-0.44-0.29-0.94-0.54-1.26-0.93c-0.32-0.39-0.45-0.93-0.16-1.81
		c0.53,0.67,1.05,1.35,1.53,2.36C583.27,938.72,583.24,938.75,583.22,938.77z"/>
	<path class="st14" d="M595.28,956.99c0.63,0.48,1.18,1.05,1.66,1.68c0.05,0.06-0.34,0.45-0.53,0.69c-0.44-0.45-0.88-0.9-1.38-1.7
		C594.98,957.3,595.18,957.1,595.28,956.99z"/>
	<path class="st0" d="M657.75,989.09c0.14-0.34,0.34-0.39,0.85-0.46c0.38,0.42,0.45,0.86,0.52,1.63c0,0.33-0.12,0.43-0.19,0.49
		C658.51,990.33,658.16,989.86,657.75,989.09z"/>
	<path class="st0" d="M599.58,981.32c0-0.3,0.19-0.33,0.65-0.34c0.59,0.2,0.9,0.39,1.3,0.84
		C601.01,981.93,600.39,981.76,599.58,981.32z"/>
	<path class="st0" d="M571.23,978.93c-0.5-0.15-0.96-0.36-1.41-0.57c0.43-0.03,0.86-0.05,1.43,0.16
		C571.38,978.74,571.28,978.87,571.23,978.93z"/>
	<path class="st14" d="M507.57,949.41c-0.53,0.21-0.87,0.12-1.22-0.55c0.02-0.8,0.06-1.02,0.1-1.24
		C506.89,948.12,507.33,948.62,507.57,949.41z"/>
	<path class="st0" d="M517.19,926.89c-0.44-0.45-0.76-1-1.06-1.88c0.03-0.33,0.02-0.32,0.01-0.32c0.41,0.44,0.82,0.87,1.31,1.61
		C517.54,926.6,517.31,926.79,517.19,926.89z"/>
	<path class="st14" d="M632.37,939.75c0.13,0.14,0.14,0.4,0.14,0.65C632.42,940.22,632.33,940.04,632.37,939.75z"/>
	<path class="st0" d="M580.01,977.71c0.3,0.19,0.6,0.37,1,0.81c0.09,0.26,0.04,0.31,0.01,0.34c-0.34-0.16-0.65-0.35-1-0.82
		C579.97,977.74,580.01,977.71,580.01,977.71z"/>
	<path class="st0" d="M578.89,977.05c0.07-0.28,0.26-0.31,0.75-0.37c0.29-0.02,0.36,0.5,0.37,0.76c0.01,0.26-0.03,0.3-0.06,0.32
		C579.62,977.62,579.32,977.46,578.89,977.05z"/>
	<path class="st14" d="M508.56,950.43c-0.47,0.23-0.87,0.09-1.22-0.4C507.8,949.81,508.22,949.93,508.56,950.43z"/>
	<path class="st0" d="M506.16,947.51c0.26,0.33,0.22,0.55,0.06,1.08c-0.43,0.05-0.74-0.22-1.01-0.79
		C505.45,947.46,505.66,947.43,506.16,947.51z"/>
	<path class="st0" d="M325.59,840.45c-3.44-3.79-6.78-7.72-10.11-11.64c0.71-0.51,1.42-1.03,2.13-1.54
		c2.73,4.01,5.46,8.03,8.26,12.42C325.93,840.08,325.7,840.32,325.59,840.45z"/>
	<path class="st0" d="M266.68,849.67c2.38,3.8,4.76,7.6,7.14,11.82c0,0.43-0.1,0.51-0.1,0.51c-2.48-3.71-4.97-7.42-7.39-11.62
		C266.38,849.89,266.68,849.67,266.68,849.67z"/>
	<path class="st0" d="M273.86,861.88c1.22,1.37,2.39,2.78,3.56,4.19c-0.49,0.32-0.98,0.64-1.47,0.97c-0.75-1.43-1.5-2.85-2.24-4.65
		C273.72,862,273.81,861.92,273.86,861.88z"/>
	<path class="st0" d="M243.74,817.28c0.71,1.58,1.42,3.17,2.14,5.12c0,0.37-0.11,0.47-0.17,0.52c-0.86-1.38-1.66-2.8-2.36-4.76
		C243.46,817.62,243.74,817.28,243.74,817.28z"/>
	<path class="st0" d="M266.24,850.01c-0.86-1.04-1.57-2.2-2.29-3.36c0.3-0.21,0.6-0.42,0.9-0.64c0.56,0.99,1.13,1.97,1.76,3.3
		C266.68,849.67,266.38,849.89,266.24,850.01z"/>
	<path class="st0" d="M330.09,824c-0.72-1.07-1.44-2.14-2.16-3.21c0.33-0.2,0.66-0.41,0.99-0.61c0.41,1.03,0.82,2.05,1.21,3.44
		C330.1,823.99,330.09,824,330.09,824z"/>
	<path class="st0" d="M329.01,809.93c-0.38-0.78-0.75-1.56-1.13-2.34c0.26-0.1,0.52-0.21,0.78-0.31c0.15,0.64,0.31,1.29,0.41,2.29
		C329.02,809.91,329.01,809.92,329.01,809.93z"/>
	<path class="st0" d="M275.99,806.69c-0.27-0.35-0.55-0.7-0.82-1.05c0.19-0.14,0.39-0.29,0.58-0.43c0.12,0.29,0.24,0.58,0.31,1.17
		C276,806.68,275.99,806.69,275.99,806.69z"/>
	<path class="st0" d="M277.09,808.84c-0.34-0.51-0.69-1.01-1.07-1.84c-0.03-0.32-0.02-0.33-0.01-0.34c0.37,0.5,0.72,1.01,1.06,1.85
		C277.06,808.86,277.08,808.85,277.09,808.84z"/>
	<path class="st0" d="M243.32,817.79c-0.51-0.17-0.87-0.51-1.24-0.85c0.45-0.04,0.9-0.07,1.5,0.12
		C243.74,817.28,243.46,817.62,243.32,817.79z"/>
	<path class="st0" d="M451.24,323.09c0.61-0.31,1.36-0.21,2.18,0.31C452.78,323.72,452.08,323.62,451.24,323.09z"/>
	<path class="st0" d="M454.05,325.13c0.9,0.19,1.37,0.72,1.7,1.6C454.95,326.55,454.29,326.01,454.05,325.13z"/>
	<path class="st0" d="M453.15,324.18c0.59-0.29,0.98-0.12,1.39,0.39C454.02,324.83,453.48,324.73,453.15,324.18z"/>
	<path class="st0" d="M610.32,518.59c-1.21-0.35-2.19-0.95-3.17-1.55c0.1-0.25,0.21-0.51,0.31-0.76c1.05,0.3,2.1,0.6,3.34,1.22
		C610.84,517.98,610.7,518.16,610.32,518.59z"/>
	<path class="st0" d="M480,300.39c-2.7-1.46-5.11-3.19-7.52-4.93c0.38-0.52,0.76-1.04,1.14-1.56c2.28,1.67,4.56,3.35,7.04,5.33
		C480.68,299.73,480.49,299.92,480,300.39z"/>
	<path class="st0" d="M314.28,437.11c-0.34,0.34-0.91,0.29-1.51-0.26C313.17,436.47,313.61,436.6,314.28,437.11z"/>
	<path class="st0" d="M316.15,401.3c-0.09,0.34-0.29,0.31-0.76,0.34c-0.43-0.1-0.58-0.26-0.61-0.73
		C315.28,400.72,315.67,400.82,316.15,401.3z"/>
	<path class="st0" d="M512.88,960.07c-0.62-0.12-1.34-0.55-2.13-1.34C511.38,958.83,512.08,959.29,512.88,960.07z"/>
	<path class="st0" d="M717.8,919.24c-0.67-1.22-1-2.36-1.34-3.51c0.26-0.16,0.52-0.32,0.78-0.47c0.72,1.1,1.43,2.19,2.19,3.65
		C719.04,919.28,718.59,919.29,717.8,919.24z"/>
</g>
</svg>
